<mxfile host="app.diagrams.net" modified="2023-10-31T12:54:06.004Z" agent="Mozilla/5.0 (Windows NT 10.0; Win64; x64) AppleWebKit/537.36 (KHTML, like Gecko) Chrome/118.0.0.0 Safari/537.36 Edg/118.0.2088.76" etag="QRkZWWxN-1RbuUdw31_1" version="22.0.8" type="device">
  <diagram name="Страница — 1" id="xNhkk6Y7PHz2CxY0_UEJ">
    <mxGraphModel dx="2251" dy="1924" grid="1" gridSize="10" guides="1" tooltips="1" connect="1" arrows="1" fold="1" page="1" pageScale="1" pageWidth="827" pageHeight="1169" math="0" shadow="0">
      <root>
        <mxCell id="0" />
        <mxCell id="1" parent="0" />
        <mxCell id="gtQoloSdJLPToObRkVTG-1" value="User" style="shape=umlActor;verticalLabelPosition=bottom;verticalAlign=top;html=1;outlineConnect=0;" vertex="1" parent="1">
          <mxGeometry x="-20" y="230" width="30" height="60" as="geometry" />
        </mxCell>
        <mxCell id="gtQoloSdJLPToObRkVTG-2" value="Авторизация" style="ellipse;whiteSpace=wrap;html=1;" vertex="1" parent="1">
          <mxGeometry x="110" y="140" width="90" height="50" as="geometry" />
        </mxCell>
        <mxCell id="gtQoloSdJLPToObRkVTG-3" value="Выбор пылесоса" style="ellipse;whiteSpace=wrap;html=1;" vertex="1" parent="1">
          <mxGeometry x="110" y="220" width="90" height="50" as="geometry" />
        </mxCell>
        <mxCell id="gtQoloSdJLPToObRkVTG-4" value="Добавление нового пылесоса" style="ellipse;whiteSpace=wrap;html=1;" vertex="1" parent="1">
          <mxGeometry x="20" y="350" width="90" height="50" as="geometry" />
        </mxCell>
        <mxCell id="gtQoloSdJLPToObRkVTG-5" value="Уборка" style="ellipse;whiteSpace=wrap;html=1;" vertex="1" parent="1">
          <mxGeometry x="240" y="190" width="90" height="50" as="geometry" />
        </mxCell>
        <mxCell id="gtQoloSdJLPToObRkVTG-6" value="Расписание" style="ellipse;whiteSpace=wrap;html=1;" vertex="1" parent="1">
          <mxGeometry x="240" y="260" width="90" height="50" as="geometry" />
        </mxCell>
        <mxCell id="gtQoloSdJLPToObRkVTG-7" value="Обслуживание" style="ellipse;whiteSpace=wrap;html=1;" vertex="1" parent="1">
          <mxGeometry x="240" y="330" width="90" height="50" as="geometry" />
        </mxCell>
        <mxCell id="gtQoloSdJLPToObRkVTG-8" value="Удаление пылесоса" style="ellipse;whiteSpace=wrap;html=1;" vertex="1" parent="1">
          <mxGeometry x="140" y="370" width="90" height="50" as="geometry" />
        </mxCell>
        <mxCell id="gtQoloSdJLPToObRkVTG-9" value="Влажная" style="ellipse;whiteSpace=wrap;html=1;" vertex="1" parent="1">
          <mxGeometry x="330" y="90" width="90" height="50" as="geometry" />
        </mxCell>
        <mxCell id="gtQoloSdJLPToObRkVTG-10" value="Зональная" style="ellipse;whiteSpace=wrap;html=1;" vertex="1" parent="1">
          <mxGeometry x="380" y="150" width="90" height="50" as="geometry" />
        </mxCell>
        <mxCell id="gtQoloSdJLPToObRkVTG-11" value="Ручное управление" style="ellipse;whiteSpace=wrap;html=1;" vertex="1" parent="1">
          <mxGeometry x="390" y="210" width="90" height="50" as="geometry" />
        </mxCell>
        <mxCell id="gtQoloSdJLPToObRkVTG-12" value="Пауза" style="ellipse;whiteSpace=wrap;html=1;" vertex="1" parent="1">
          <mxGeometry x="540" y="-10" width="90" height="50" as="geometry" />
        </mxCell>
        <mxCell id="gtQoloSdJLPToObRkVTG-13" value="Старт" style="ellipse;whiteSpace=wrap;html=1;" vertex="1" parent="1">
          <mxGeometry x="600" y="70" width="90" height="50" as="geometry" />
        </mxCell>
        <mxCell id="gtQoloSdJLPToObRkVTG-14" value="Стоп" style="ellipse;whiteSpace=wrap;html=1;" vertex="1" parent="1">
          <mxGeometry x="620" y="150" width="90" height="50" as="geometry" />
        </mxCell>
        <mxCell id="gtQoloSdJLPToObRkVTG-15" value="Вернуться на базу" style="ellipse;whiteSpace=wrap;html=1;" vertex="1" parent="1">
          <mxGeometry x="390" width="90" height="50" as="geometry" />
        </mxCell>
        <mxCell id="gtQoloSdJLPToObRkVTG-16" value="Создать событие" style="ellipse;whiteSpace=wrap;html=1;" vertex="1" parent="1">
          <mxGeometry x="480" y="280" width="90" height="50" as="geometry" />
        </mxCell>
        <mxCell id="gtQoloSdJLPToObRkVTG-17" value="Изменить событие" style="ellipse;whiteSpace=wrap;html=1;" vertex="1" parent="1">
          <mxGeometry x="360" y="370" width="90" height="50" as="geometry" />
        </mxCell>
        <mxCell id="gtQoloSdJLPToObRkVTG-18" value="Удалить событие" style="ellipse;whiteSpace=wrap;html=1;" vertex="1" parent="1">
          <mxGeometry x="500" y="350" width="90" height="50" as="geometry" />
        </mxCell>
        <mxCell id="gtQoloSdJLPToObRkVTG-19" value="Заряд батареи" style="ellipse;whiteSpace=wrap;html=1;" vertex="1" parent="1">
          <mxGeometry x="330" y="430" width="90" height="50" as="geometry" />
        </mxCell>
        <mxCell id="gtQoloSdJLPToObRkVTG-20" value="Очистка фильтров" style="ellipse;whiteSpace=wrap;html=1;" vertex="1" parent="1">
          <mxGeometry x="230" y="460" width="90" height="50" as="geometry" />
        </mxCell>
        <mxCell id="gtQoloSdJLPToObRkVTG-21" value="Заполненность контейнера" style="ellipse;whiteSpace=wrap;html=1;" vertex="1" parent="1">
          <mxGeometry x="130" y="500" width="90" height="50" as="geometry" />
        </mxCell>
        <mxCell id="gtQoloSdJLPToObRkVTG-22" value="" style="endArrow=classic;html=1;rounded=0;entryX=0.011;entryY=0.736;entryDx=0;entryDy=0;entryPerimeter=0;" edge="1" parent="1" source="gtQoloSdJLPToObRkVTG-1" target="gtQoloSdJLPToObRkVTG-2">
          <mxGeometry width="50" height="50" relative="1" as="geometry">
            <mxPoint x="390" y="290" as="sourcePoint" />
            <mxPoint x="440" y="240" as="targetPoint" />
          </mxGeometry>
        </mxCell>
        <mxCell id="gtQoloSdJLPToObRkVTG-23" value="" style="endArrow=classic;html=1;rounded=0;entryX=-0.011;entryY=0.656;entryDx=0;entryDy=0;entryPerimeter=0;" edge="1" parent="1" source="gtQoloSdJLPToObRkVTG-1" target="gtQoloSdJLPToObRkVTG-3">
          <mxGeometry width="50" height="50" relative="1" as="geometry">
            <mxPoint x="390" y="290" as="sourcePoint" />
            <mxPoint x="440" y="240" as="targetPoint" />
          </mxGeometry>
        </mxCell>
        <mxCell id="gtQoloSdJLPToObRkVTG-24" value="" style="endArrow=classic;html=1;rounded=0;entryX=0.367;entryY=-0.064;entryDx=0;entryDy=0;entryPerimeter=0;" edge="1" parent="1" source="gtQoloSdJLPToObRkVTG-1" target="gtQoloSdJLPToObRkVTG-4">
          <mxGeometry width="50" height="50" relative="1" as="geometry">
            <mxPoint x="390" y="290" as="sourcePoint" />
            <mxPoint x="440" y="240" as="targetPoint" />
          </mxGeometry>
        </mxCell>
        <mxCell id="gtQoloSdJLPToObRkVTG-27" value="" style="endArrow=classic;html=1;rounded=0;exitX=0.922;exitY=0.29;exitDx=0;exitDy=0;exitPerimeter=0;entryX=0;entryY=0.5;entryDx=0;entryDy=0;" edge="1" parent="1" source="gtQoloSdJLPToObRkVTG-3" target="gtQoloSdJLPToObRkVTG-5">
          <mxGeometry width="50" height="50" relative="1" as="geometry">
            <mxPoint x="390" y="290" as="sourcePoint" />
            <mxPoint x="440" y="240" as="targetPoint" />
          </mxGeometry>
        </mxCell>
        <mxCell id="gtQoloSdJLPToObRkVTG-30" value="" style="endArrow=classic;html=1;rounded=0;exitX=1;exitY=0.5;exitDx=0;exitDy=0;" edge="1" parent="1" source="gtQoloSdJLPToObRkVTG-3" target="gtQoloSdJLPToObRkVTG-6">
          <mxGeometry width="50" height="50" relative="1" as="geometry">
            <mxPoint x="390" y="290" as="sourcePoint" />
            <mxPoint x="440" y="240" as="targetPoint" />
          </mxGeometry>
        </mxCell>
        <mxCell id="gtQoloSdJLPToObRkVTG-31" value="" style="endArrow=classic;html=1;rounded=0;" edge="1" parent="1" source="gtQoloSdJLPToObRkVTG-3" target="gtQoloSdJLPToObRkVTG-7">
          <mxGeometry width="50" height="50" relative="1" as="geometry">
            <mxPoint x="210" y="255" as="sourcePoint" />
            <mxPoint x="261" y="279" as="targetPoint" />
          </mxGeometry>
        </mxCell>
        <mxCell id="gtQoloSdJLPToObRkVTG-32" value="" style="endArrow=classic;html=1;rounded=0;entryX=0.344;entryY=-0.03;entryDx=0;entryDy=0;entryPerimeter=0;" edge="1" parent="1" source="gtQoloSdJLPToObRkVTG-3" target="gtQoloSdJLPToObRkVTG-8">
          <mxGeometry width="50" height="50" relative="1" as="geometry">
            <mxPoint x="220" y="265" as="sourcePoint" />
            <mxPoint x="271" y="289" as="targetPoint" />
          </mxGeometry>
        </mxCell>
        <mxCell id="gtQoloSdJLPToObRkVTG-33" value="" style="endArrow=classic;html=1;rounded=0;exitX=1;exitY=1;exitDx=0;exitDy=0;" edge="1" parent="1" source="gtQoloSdJLPToObRkVTG-7" target="gtQoloSdJLPToObRkVTG-19">
          <mxGeometry width="50" height="50" relative="1" as="geometry">
            <mxPoint x="230" y="275" as="sourcePoint" />
            <mxPoint x="281" y="299" as="targetPoint" />
          </mxGeometry>
        </mxCell>
        <mxCell id="gtQoloSdJLPToObRkVTG-34" value="" style="endArrow=classic;html=1;rounded=0;" edge="1" parent="1" source="gtQoloSdJLPToObRkVTG-7" target="gtQoloSdJLPToObRkVTG-20">
          <mxGeometry width="50" height="50" relative="1" as="geometry">
            <mxPoint x="240" y="285" as="sourcePoint" />
            <mxPoint x="291" y="309" as="targetPoint" />
          </mxGeometry>
        </mxCell>
        <mxCell id="gtQoloSdJLPToObRkVTG-35" value="" style="endArrow=classic;html=1;rounded=0;exitX=0;exitY=1;exitDx=0;exitDy=0;entryX=0.733;entryY=-0.03;entryDx=0;entryDy=0;entryPerimeter=0;" edge="1" parent="1" source="gtQoloSdJLPToObRkVTG-7" target="gtQoloSdJLPToObRkVTG-21">
          <mxGeometry width="50" height="50" relative="1" as="geometry">
            <mxPoint x="250" y="295" as="sourcePoint" />
            <mxPoint x="301" y="319" as="targetPoint" />
          </mxGeometry>
        </mxCell>
        <mxCell id="gtQoloSdJLPToObRkVTG-36" value="" style="endArrow=classic;html=1;rounded=0;exitX=1;exitY=0.5;exitDx=0;exitDy=0;" edge="1" parent="1" source="gtQoloSdJLPToObRkVTG-6" target="gtQoloSdJLPToObRkVTG-16">
          <mxGeometry width="50" height="50" relative="1" as="geometry">
            <mxPoint x="260" y="305" as="sourcePoint" />
            <mxPoint x="311" y="329" as="targetPoint" />
          </mxGeometry>
        </mxCell>
        <mxCell id="gtQoloSdJLPToObRkVTG-37" value="" style="endArrow=classic;html=1;rounded=0;exitX=1;exitY=1;exitDx=0;exitDy=0;entryX=0.222;entryY=0;entryDx=0;entryDy=0;entryPerimeter=0;" edge="1" parent="1" source="gtQoloSdJLPToObRkVTG-6" target="gtQoloSdJLPToObRkVTG-18">
          <mxGeometry width="50" height="50" relative="1" as="geometry">
            <mxPoint x="270" y="315" as="sourcePoint" />
            <mxPoint x="321" y="339" as="targetPoint" />
          </mxGeometry>
        </mxCell>
        <mxCell id="gtQoloSdJLPToObRkVTG-38" value="" style="endArrow=classic;html=1;rounded=0;exitX=0.744;exitY=0.95;exitDx=0;exitDy=0;exitPerimeter=0;" edge="1" parent="1" source="gtQoloSdJLPToObRkVTG-6" target="gtQoloSdJLPToObRkVTG-17">
          <mxGeometry width="50" height="50" relative="1" as="geometry">
            <mxPoint x="280" y="325" as="sourcePoint" />
            <mxPoint x="331" y="349" as="targetPoint" />
          </mxGeometry>
        </mxCell>
        <mxCell id="gtQoloSdJLPToObRkVTG-39" value="" style="endArrow=classic;html=1;rounded=0;exitX=0.6;exitY=-0.01;exitDx=0;exitDy=0;exitPerimeter=0;entryX=0;entryY=1;entryDx=0;entryDy=0;" edge="1" parent="1" source="gtQoloSdJLPToObRkVTG-5" target="gtQoloSdJLPToObRkVTG-9">
          <mxGeometry width="50" height="50" relative="1" as="geometry">
            <mxPoint x="390" y="290" as="sourcePoint" />
            <mxPoint x="440" y="240" as="targetPoint" />
          </mxGeometry>
        </mxCell>
        <mxCell id="gtQoloSdJLPToObRkVTG-40" value="" style="endArrow=classic;html=1;rounded=0;exitX=1;exitY=0;exitDx=0;exitDy=0;entryX=0;entryY=0.5;entryDx=0;entryDy=0;" edge="1" parent="1" source="gtQoloSdJLPToObRkVTG-5" target="gtQoloSdJLPToObRkVTG-10">
          <mxGeometry width="50" height="50" relative="1" as="geometry">
            <mxPoint x="390" y="290" as="sourcePoint" />
            <mxPoint x="440" y="240" as="targetPoint" />
          </mxGeometry>
        </mxCell>
        <mxCell id="gtQoloSdJLPToObRkVTG-41" value="" style="endArrow=classic;html=1;rounded=0;" edge="1" parent="1" source="gtQoloSdJLPToObRkVTG-5" target="gtQoloSdJLPToObRkVTG-11">
          <mxGeometry width="50" height="50" relative="1" as="geometry">
            <mxPoint x="390" y="290" as="sourcePoint" />
            <mxPoint x="440" y="240" as="targetPoint" />
          </mxGeometry>
        </mxCell>
        <mxCell id="gtQoloSdJLPToObRkVTG-42" value="" style="endArrow=classic;html=1;rounded=0;exitX=0.667;exitY=-0.01;exitDx=0;exitDy=0;exitPerimeter=0;entryX=0.222;entryY=1.01;entryDx=0;entryDy=0;entryPerimeter=0;" edge="1" parent="1" source="gtQoloSdJLPToObRkVTG-9" target="gtQoloSdJLPToObRkVTG-15">
          <mxGeometry width="50" height="50" relative="1" as="geometry">
            <mxPoint x="390" y="290" as="sourcePoint" />
            <mxPoint x="440" y="240" as="targetPoint" />
          </mxGeometry>
        </mxCell>
        <mxCell id="gtQoloSdJLPToObRkVTG-43" value="" style="endArrow=classic;html=1;rounded=0;exitX=1;exitY=0.5;exitDx=0;exitDy=0;entryX=0;entryY=0.5;entryDx=0;entryDy=0;" edge="1" parent="1" source="gtQoloSdJLPToObRkVTG-9" target="gtQoloSdJLPToObRkVTG-12">
          <mxGeometry width="50" height="50" relative="1" as="geometry">
            <mxPoint x="290" y="335" as="sourcePoint" />
            <mxPoint x="341" y="359" as="targetPoint" />
          </mxGeometry>
        </mxCell>
        <mxCell id="gtQoloSdJLPToObRkVTG-44" value="" style="endArrow=classic;html=1;rounded=0;entryX=0.022;entryY=0.23;entryDx=0;entryDy=0;entryPerimeter=0;" edge="1" parent="1" source="gtQoloSdJLPToObRkVTG-9" target="gtQoloSdJLPToObRkVTG-13">
          <mxGeometry width="50" height="50" relative="1" as="geometry">
            <mxPoint x="300" y="345" as="sourcePoint" />
            <mxPoint x="351" y="369" as="targetPoint" />
          </mxGeometry>
        </mxCell>
        <mxCell id="gtQoloSdJLPToObRkVTG-45" value="" style="endArrow=classic;html=1;rounded=0;exitX=0.956;exitY=0.81;exitDx=0;exitDy=0;exitPerimeter=0;entryX=0.5;entryY=0;entryDx=0;entryDy=0;" edge="1" parent="1" source="gtQoloSdJLPToObRkVTG-9" target="gtQoloSdJLPToObRkVTG-14">
          <mxGeometry width="50" height="50" relative="1" as="geometry">
            <mxPoint x="310" y="355" as="sourcePoint" />
            <mxPoint x="361" y="379" as="targetPoint" />
          </mxGeometry>
        </mxCell>
        <mxCell id="gtQoloSdJLPToObRkVTG-46" value="" style="endArrow=classic;html=1;rounded=0;exitX=0.711;exitY=0.05;exitDx=0;exitDy=0;exitPerimeter=0;entryX=1;entryY=1;entryDx=0;entryDy=0;" edge="1" parent="1" source="gtQoloSdJLPToObRkVTG-10" target="gtQoloSdJLPToObRkVTG-15">
          <mxGeometry width="50" height="50" relative="1" as="geometry">
            <mxPoint x="390" y="290" as="sourcePoint" />
            <mxPoint x="440" y="240" as="targetPoint" />
          </mxGeometry>
        </mxCell>
        <mxCell id="gtQoloSdJLPToObRkVTG-47" value="" style="endArrow=classic;html=1;rounded=0;entryX=0;entryY=1;entryDx=0;entryDy=0;" edge="1" parent="1" source="gtQoloSdJLPToObRkVTG-10" target="gtQoloSdJLPToObRkVTG-12">
          <mxGeometry width="50" height="50" relative="1" as="geometry">
            <mxPoint x="320" y="365" as="sourcePoint" />
            <mxPoint x="371" y="389" as="targetPoint" />
          </mxGeometry>
        </mxCell>
        <mxCell id="gtQoloSdJLPToObRkVTG-48" value="" style="endArrow=classic;html=1;rounded=0;exitX=1;exitY=0.5;exitDx=0;exitDy=0;entryX=0;entryY=0.5;entryDx=0;entryDy=0;" edge="1" parent="1" source="gtQoloSdJLPToObRkVTG-10" target="gtQoloSdJLPToObRkVTG-13">
          <mxGeometry width="50" height="50" relative="1" as="geometry">
            <mxPoint x="330" y="375" as="sourcePoint" />
            <mxPoint x="381" y="399" as="targetPoint" />
          </mxGeometry>
        </mxCell>
        <mxCell id="gtQoloSdJLPToObRkVTG-49" value="" style="endArrow=classic;html=1;rounded=0;exitX=1;exitY=1;exitDx=0;exitDy=0;entryX=0;entryY=0.5;entryDx=0;entryDy=0;" edge="1" parent="1" source="gtQoloSdJLPToObRkVTG-10" target="gtQoloSdJLPToObRkVTG-14">
          <mxGeometry width="50" height="50" relative="1" as="geometry">
            <mxPoint x="340" y="385" as="sourcePoint" />
            <mxPoint x="391" y="409" as="targetPoint" />
          </mxGeometry>
        </mxCell>
        <mxCell id="gtQoloSdJLPToObRkVTG-50" value="" style="endArrow=classic;html=1;rounded=0;exitX=1;exitY=0.5;exitDx=0;exitDy=0;entryX=0;entryY=0.8;entryDx=0;entryDy=0;entryPerimeter=0;" edge="1" parent="1" source="gtQoloSdJLPToObRkVTG-11" target="gtQoloSdJLPToObRkVTG-14">
          <mxGeometry width="50" height="50" relative="1" as="geometry">
            <mxPoint x="350" y="395" as="sourcePoint" />
            <mxPoint x="401" y="419" as="targetPoint" />
          </mxGeometry>
        </mxCell>
        <mxCell id="gtQoloSdJLPToObRkVTG-51" value="" style="endArrow=classic;html=1;rounded=0;exitX=1;exitY=0;exitDx=0;exitDy=0;" edge="1" parent="1" source="gtQoloSdJLPToObRkVTG-11" target="gtQoloSdJLPToObRkVTG-13">
          <mxGeometry width="50" height="50" relative="1" as="geometry">
            <mxPoint x="360" y="405" as="sourcePoint" />
            <mxPoint x="411" y="429" as="targetPoint" />
          </mxGeometry>
        </mxCell>
        <mxCell id="gtQoloSdJLPToObRkVTG-52" value="" style="endArrow=classic;html=1;rounded=0;exitX=1;exitY=0;exitDx=0;exitDy=0;entryX=0.289;entryY=1.03;entryDx=0;entryDy=0;entryPerimeter=0;" edge="1" parent="1" source="gtQoloSdJLPToObRkVTG-11" target="gtQoloSdJLPToObRkVTG-12">
          <mxGeometry width="50" height="50" relative="1" as="geometry">
            <mxPoint x="370" y="415" as="sourcePoint" />
            <mxPoint x="421" y="439" as="targetPoint" />
          </mxGeometry>
        </mxCell>
        <mxCell id="gtQoloSdJLPToObRkVTG-53" value="" style="endArrow=classic;html=1;rounded=0;exitX=1;exitY=0.5;exitDx=0;exitDy=0;entryX=0.733;entryY=1.05;entryDx=0;entryDy=0;entryPerimeter=0;" edge="1" parent="1" source="gtQoloSdJLPToObRkVTG-11" target="gtQoloSdJLPToObRkVTG-15">
          <mxGeometry width="50" height="50" relative="1" as="geometry">
            <mxPoint x="380" y="425" as="sourcePoint" />
            <mxPoint x="431" y="449" as="targetPoint" />
          </mxGeometry>
        </mxCell>
        <mxCell id="gtQoloSdJLPToObRkVTG-56" value="" style="endArrow=classic;html=1;rounded=0;entryX=0.956;entryY=0.21;entryDx=0;entryDy=0;entryPerimeter=0;" edge="1" parent="1" source="gtQoloSdJLPToObRkVTG-57" target="gtQoloSdJLPToObRkVTG-58">
          <mxGeometry width="50" height="50" relative="1" as="geometry">
            <mxPoint x="690" y="600" as="sourcePoint" />
            <mxPoint x="741" y="624" as="targetPoint" />
          </mxGeometry>
        </mxCell>
        <mxCell id="gtQoloSdJLPToObRkVTG-57" value="" style="shape=image;verticalLabelPosition=bottom;labelBackgroundColor=default;verticalAlign=top;aspect=fixed;imageAspect=0;image=data:image/png,iVBORw0KGgoAAAANSUhEUgAAAgAAAAIACAYAAAD0eNT6AAAAAXNSR0IArs4c6QAAIABJREFUeAHsnQe4LEW1tr+rAioYECOKGROoYM4Jc1ZMKJgwC3r1qlcxY1bM6SrqNWcBcw5cxZwDqAiKWUEExRz+/3kPPdBnzszs7l7V3VU9Xz3POXv27A5rvVVdVV21guRiAiaQO4GtJO0o6YqSbi7pbpIeKOm/JT1L0iskvVXS+yV9XNIXJH1V0o8k/VjSiXP//iXp/83947v54zj36OpaXJNrc4+3VPfk3siALHeVdLNKRmRFZhcTMAETMAETMIEFBP6jGtivLukOkh4m6bnVAPt/ko6S9Lu5gXp+4M75d2RHB3R5s6TnVDqi69Uq3Rdg8VcmYAImYAImUD6BM0q6pKRbSdpf0ouqt+jvSfpLwYN7qokHDGDxPkkvrBjdsmIGOxcTMAETMAETyJrAmSTtWi2FP0XSOyR9S9JfPchvsd3QdPIAu29WLJ8s6S6SdpEEaxcTMAETMAETGJzA2SVdr3pbfU21R+6Bfku7gqYDfdvjWDXAxgH2rKpcVxJ14mICJmACJmACyQjwtslb5z0lvaparl5kRNd2EPPx6ScMv5T0TkkPl3QdSWdO1gp8IRMwARMwgckTOI+k20t6gaQvSvqbl/A7L+GPPclhVQbvhedLup2kc0++9VpBEzABEzCBxgQuWL3dHyzpSA/2xQ72TSYb/67q+NWS9rEXQuNnxAeagAmYwCQIbCfpxpKeXe0jMyg0GTx8zDQ5HVNt7dxZ0rkm0cKthAmYgAmYwCYCZ5CEn/1TJX1Z0j894HvCs6QN0Da+JAkvDuIU0HZcTMAETMAECiLAmxxvdBjt/WJJZ+83+mm+0aes1+Mro0IMQLcvqP1bVBMwARNYKwI7SXpAFWTn7x70/ZafuA2wOvC5ysPgQmv1ZFlZEzABE8iQwGUlHSDpK5K8l+83+pRv/6uuRVtjO+lxki6T4XNhkUzABExgkgQuXL2F8Ta2qpP238xnqDZAKGPsBnae5BNnpUzABExgRAK46j2iMtAaqlP3fTyBaNsGWBkg7sB/2sVwxN7CtzYBEyiewFkk3UPSR225f9pKBwMMhmk/kPR5SR+Q9IYqic4TJD2k8m/HAJJ/pA7G5ZF/V5F0ZUm7Sbp49Y+JFf9mv/M3juHY2Xm3qK7F9fCd5x5PrO75xkoGBj1kOsFbMafVFTYDH5a0lyTasosJmIAJmMAKAqTHJa47Md5PXrMl/hMlfUPSYVXGQN4iSZt7DUmXkrTDCm45/Yk6RFZkRvY7Vqs3ZEFEN3RE17Zv1yUff5IkAk0Rnhg+LiZgAiZgAhUBwu8+WtIPJzww4Jnwncqt7HmS9pN0G0mXX9NENiTvQXcYkNDnIEnvkvRdSVP24mCl5FEOS+y+zwRMYN0JsNyMr/6fJzbwk5Tm45JeXIUZRk8vAzdv7VtV2xJMDjCuI8EPhnZTSsJEjgn0YqvFqwLN24aPNAETKJjAOaolYd6ESl7WRfY/SvpUtR++bxU9jlDDLv0QgC0R+u5XMYc9dVB6O+JZYMuHZ8PFBEzABCZHABcp3ohL7rDn081uPblaKk+hMy5I11xqTAieDVbEdi2vGiyxCZiACWxOgFjqLON+rEDr8FMkfUbSsyTdVhJ2Ci5lEDhvVWckfDpc0p8KWyVgAoP3y62cj6CMBmcpTcAETiewjaT7S/p+QR3vX6p9ewy02LM/0+nq+FPhBKhLXBsfI+kTkv5aULskRTXbSzxTLiZgAiaQLQEsux8u6eeFdLD1VLDI7rIeBDDIxPhulhK6BBuC31QGkU5ZvB5t1FqaQDEEdqyMsnLf38f/HFczjMgIKexiAhC4SJVI6t2Sfp/55PUPkp4v6QKuOhMwARMYkwAd58szX1JlG+Lpkq4pCYMxFxNYRYA2ci1Jz6yiG+a6OsCW1UslkQXTxQRMwAQGI3DRyqKfTijHDpKlfTwOiLzmYgIRArtUS+/EIcixrRM0iZDMTkQUqWWfawImsCEB3vhfJ+kfGXaGRNl7kqTLbaiFDzCBbgRwzyMwEdEKc5sM8EwSbthbW93q1meZgAksIYALHAZTub3xz9KwXnaJ3P7aBPoiQAIlDF5zS0tNhEFiCdhGoK+a93VNYE0IYHH8nMz8qH8t6bmSLrMmdWA18yfAqhO5DLDUz2VlgDgW2DFsnz8+S2gCJpATASLc8XaTi0U0MeCJrU9KWuLEu5hAjgQwIMS9kBj/uWyT4fny35LOnCMwy2QCJpAPAZKSMMgem8mbDNkB2XPF9sDFBEoiwBI8A+/RmTxLP6tcHe0JU1IrsqwmMBCBPSR9PYPOCjsDZ0kbqNJ9m0EIzLJesiw/9hbBVyXdaBCtfRMTMIHsCVxS0vsy6Jh423+oM6Jl314sYHcCZPvbTxJtfeyJwGFVyuXu2vhMEzCBYgmctVpeH9uyHytqth28NFlsU7LgLQmQJAtbgfePPBEghgDxMs7WUn4fbgImUCiB2T7/cSN2Prgqscx/9UIZWmwTSEVgt8ptb8yJ+C8k3VMSfYOLCZjARAkQyOSzIw78J0h6hiRyB7iYgAmcToBnAre93434fJI6mciHLiZgAhMiMFvu5817jL1HLKFxK9x2Qkytign0QYC0v7yNjxV6GPdFtgW260M5X9METGBYAreV9JORBv5vS9rTS4vDVrjvNgkC2AlgG0OI6zEm7T+WdOtJkLQSJrCGBC4o6dCROg9ipdN50Ym5mIAJdCfAM3TXEVcE3uOwwt0rz2eawBgEGHzH2Es8slq+tEX/GLXue06ZABOB20j65giT+pOqIEI2EpxyC7NuxRMgTe/HRuggPPAX33SsQCEEZlsDR43wnGMk6LTDhTQUi7k+BOgUMLIbOtLY9yXdw0v969PQrGk2BFhl21vSDwaeCPxR0sP8zGfTDizImhO4mCRm5kMaChFX/F4O3rPmLc/q50CAicC9Jf184D7gM5JYcXQxARMYiQDuQn8Y8MH/k6RnO3LYSLXt25rAcgK4+pJ8iDf0oV4G6HseYC+f5ZXiv5hAHwTOJ+m9Az7o/64i9zkrXx+16WuaQDoCeP+8ShIptIeaCHzYwb3SVaCvZAKrCOBXT0S9oR5uIgdeZZVA/psJmEB2BK4m6YgB+4njJd0+OwoWyAQmQuAsVYSuoQb+nzo++ERajtVYZwK4Dh4z4ETgjY74uc7Nzbr3QYD43ETVG2Lwx5PgKZLO3IcivqYJmMDgBLauvIROHqgPwS34ioNr6RuawMQIEHgDl5uhMoW9TRL2BS4mYALTI3CBypZniBcJ+qyH2EBweo3IGg1DYPsBDf3IFXDLYdTyXQYiwOSRNsS/80u6ePWPN7MrS7pqlZOevPTsF/PdlWrH7VQ736tBA1XaQLdhW4AtviEmAoQSPsdAevk2JjAJAnTEPxrgAcVSGIvhs02C2nSV2KoamK9bGVrtW7l8PU/S66qJIgZfBGbCGAuvjT46d4xPCTzzeUkfkPQGSS+Q9HhJD5J0J0k3kHRJSSw7u+RLALdBXHr/2VNbqbc/XjCYZLqYgAlsQADf/j8P8FB+S9LVN5DFfx6OAG/qvIWTxwF/biZmH68MuEjRWu9QS/l8oqSvVsvODDb4jPP2iZ5ODT1c21p1p92rOuq7Tf21skNYJYv/ZgJrS4D82+zB9/0gMrlggDnT2pIeT3GW5VmKv52kJ1YDI2/Ufx+g3vtuV22vzyoFq1yHSDqwmvhc2tElR2mcrDA9dqAXD3sJjFLFvmnOBFgyHSLvNyGD6WRd+ifAtsp1JD1Y0isrn+yhrLDbDsY5HY/xGKsG/yvpvyTdRNIO/VeX71BNTj86wGSU1Ucmwi4msPYEbiGJpdI+O2EGHuKFO51nf81tx+ot9sWSPremb/V9tmF82Xl7ZBsBt1i35X7aMlzvI6nvySrpym/ajwq+qgnkT4AHjaX4vo1wvlAZZeVPpBwJScDCIMRgxKB0bM8TuD4H1lKvzQCFjQQxK/BkIFCWSzoChP3uO8kYfR99oCdz6erNVyqAAAZQ7+x50GBf+QDvqSZrDWydkHKZuOdDJlwpdYAeWu6/Sfp0NaDg6uhBJd70meji4dG3jQq2T3gluJjA5AmwVMweZ58dJG+k15o8yX4V5I2SN0us14ls1md9+drp+f6mmmTjVYOHhUt3AuQCwcW0z3b6TUkX7i6izzSB/AnsNkAADpak8ShwaU/gspIeKeljknBb6rPD87WH44sbJXYZvM3igujVgfbPxiwXSV8xJngeflkFqGovnc8wgcwJECTlTz0OKr+VdNvMGeQoHnv57CMf1WPdeLAfbrBvwpooeBhr4qXhyUC7p/Jm1UDdhHOXY/AC2audSD7aBPIlQAfzhB6js/GQEZXNMfybt4GLVvv5fW/FdOkAfc6wkwWi1M0mA81b0HofSWjpD/U4YWaV4XHrjdjaT4EAATbwZ+6rU8c4B8M0v8Vs3FqwaoYVS8F91YevWzbbH3sysPGDVB1Bn/OIng0EX+OAZY3rwwdmRoB9+A/2ONhg5HSjzHTOTZyzS3qgpC/1WA8e9Mse9JfVH4G5GOAchGj1U802Cnv3yzhGv8ceh+fYxQSKIcASWZ/Ly5+VRGpPl8UEMPQilr7d9frrmKMdeynnYwyKyy4eIV5pW/y8nUfSJ3ucBBA58IKLb+1vTSAvAoT1PbrHh4GBja0Fl80J4Oq1v6Rv98i+lEFrkZzkgCDiJP9Y6iayHnkI+MdnXEdnf/fEafHE6YeSHmN7m80fvOo3covgMruo7aX4jvZ5mYV39pcmkAkBUl6SMjVFg5+/Bp3y3TLRMycxSJGL6+MQGRTn62To34l+x9I0b1tvl/TyKpEOtg17S7p55UaFkSMTohRLpwRo4VpcE39wrMDvXk22nizpJZLeIukjkvDl/n1P7X9o1qvuh+3NuyoWZ8jpYchAFiz4T+mpDZDqmjboYgLZESAPel/xs3nz2DU7jccTiBUQBqGv9dTRrOr8+/wbbqLfq7w6XlYlw9mz8l0vaS/6nJKIeXF7Sf8p6UWSDqsmCCdNrM6YkLE94HI6Ad7Uacd9PCtMLkgQ5WIC2RDA/x7/1T4a/Psk0aG6nPpGS4a443pi3Uf9LbomgWnoIHmLx93p1msWBe1C1WoFy+lvkvQNSYTyXcSqhO/+VU10/IyeToBsmKyS9FF/2GUwMXYxgdEJkDmrj4Q+dCoMDjY8knaS9LweV1j66KRm1+SNhRj1z68yMl5J0jajt9r8BGAPmaBMd5X0jGpLoa8VtVndpPyJ7/od88M6qkT0XeQjoS9LyZprMYm+16ja+eZrTwA3oT5CY7KfTeTAdS8kdWF/v+9kJCk7p19Jen+VlAYXKQ/23Vsx++tMCojnj/ErqyZ9PG+p6h93OCe12bK+79zTCilt4WFb3s7fmED/BB7dw6yWjggjQgaOdS67V4Noqo65z+t8V9IrJe0j6WLrXGkD6Y77K8u/L6hcbft4u4y0FyYrLlsSuLokYpdE2C47l0irLiYwGAFyWC9rjJHvcR+81GBa5HcjDB3fk/lbHsvSyHh/Sexlu4xL4LzV5OutkrASjzx/Kc7FpsFlMQEmyH1l1sQjxcUEeifQ1+B/hKRz9y59njdg0oMrWW5vc7MBAfc2fJzx9HAMhjzbEFKxZcCbJoPBF3uyzZm1iWU/CdLlspwALqXYxCzjF/meZ9TFBHojcGBPDfcdks7cm9T5Xpg3AnIlYNATefBTn4s8H5V0P0cgy7fxNJAM18l7VC6IQ6V3/kwDudb9kK0r257Uzy3Xe+66w7X+/RB4ek+DFJnI1s3Sn8yF7JvnZNyHJwcBdsgdsK4rMf08OXlc9RyVMSGZM/t0OXxdHupmLwV9Hmm4+zDqPCh77S1gUQT6ePOnE1o3gyEs4vH9zsW9iy2HwyU91OFdi3oeo8KyDH3fytUw9eoTFu8uzQngytfHhIzJhYsJhAlgYZp6qYqwvuuWye92PedIaFNHGCI90sv74WdjChdgm+BBkr6S4DnHiJflbZd2BPboKXHX49uJ4aNNYHMCDBJtBpYmxxIr/Zqb32bSv2HZ/4keODZhXT+G2ApvsIvlpNtaVDmCNL2i4woV21nrNqmP8q6fT4z/PvKoEEzNxQRaEyDIT30ASfH5t1WM9NbCFHgC++gkq0m9xNq2Hkglup/DKRfYgsYTeVtJRPj8QsM+gDDg5KZwiREg/gd9ZNtnfKPjHSwoVi9rdzZ786mNU4gQtw4JfXDFYsAltexGD2Zffyepzmsql7C1a7xWOCkBnlkyHv5uSXv+eOJJPcZxrBA+rXKNfZukZ1UJh9bBWJhEQj9bwrprf0Ffvm/SVuGLTZYAe9Wp31p/IumSkyV2umKEbf184oe3zUP/a0lPtBX/6RXiT8kIkKuAOBBMbokCSuTHiyS7+qkXusIGzw+rWeuQeZDU0z9K3I/g5ePw6okb7NQuxx5e6qx+39epyWymxqquD8FxCJA0lK/1/KQA46uHSzpLXSh/NoGCCJDiFuPg+bY9/ztvs8TOOFdBunURlZDPhNme1z/yO94GN+0ijM+ZPoGrSfpD4gZH8pIdJ46O5crUD2rTh/xzknC7OuPEGVu9aRMgIFbbLTNWu+4ybSwizDNROJv2B02OIzvntSbOzeq1JMC+U2oL1C9PfJa+XbU3OnT4Xu73TklYDbuYwBQIEAm0yeC16Jj3TTwnBSsd9KWLdO/6HTkj1jnnyhSemWQ6nF/SsYkbGPHAz55MwvwudAtJxyVmttHDzNLnoZLYJ3UxgakQYKk7OonGtRibhKkW+lL61I36iDZ/P8bBv6baXJrrdTZJX0vcsL4+YZcz8hUQuji1h8RGDy6W1ldtXq0+0gSKIXC3hP3PuyWdpxjN2wnKJCD1SsBXJbGS6bKGBDBc+0jCh49B7NuSiCw2xYI7FPptNFin/Dt7/NefIkzrZAIVgUclfqZ+I+n2E6V7Tkm8YKXsYz4kCQ8PlzUigD8tSTtSNqQfSmI7YWoFv346qT7idS/jz8CPy5WLCUydAN4ry56DyPfEwZji2y0rHITyjrCZPxdWLmtEAF/x+UYQ+Z398NQ+wTlUB1n7mCFH2LQ5lwAgBGFah4AnOdSvZRifwM16fL5wQd5tfBWTS3ChHuy2HptcSl8wSwJ7JjC6qQ9qP5d08Sw1jQl1hx48I+rc6p+J3Ef2Lvvxx+rMZ5dHALuaPrNjEteE4EVTm1RfQtIvEk6esGu6a3nNxxK3IUCyD/xA64NP5DNxqy/XRoACjmUQPjgho1V8eeje6Kx8BbQKi9gngT7Sjc8/d4dN0D4JVz7iIczr2vV3EoYRD8ZlggQIyJMyxvRJkq48MU479WBpu+xhJP2qA3JMrAFZnU4EztqDN9Ki546tyqt3kjDfk664Ik/DIgYbfffLicdVyLcme5SM7F4prUeJGHiNHuUd49LsRS5LeLLRQ9Pm76yaeJ9/jBr2PXMmQDyALyV8m132TBKu+0E5g+ggG9FIm4RRXsZk/nvcA5mUuUyAAHtfRI6br+Suv2MNf8MJcJmpAB/i+JMsoyuTpudRD1P1U57x9E8T6EpgmyrzX+pkZIueT/IJTMnmhiRJf0/Yh5GF0WUCBA5I2CjYs+btdSqFQEgED1nUQaT8DmOdqfomT6UtWI98CBDtcojVgG9MzID53on7MtyfXQomQIatlG+2Ty6Yxbzol+7Bn3Z+0sCE6VWSmGi4mIAJNCdAcBoGIDxk5p+rlL+z7bdHc7GyP/JpCXkRopmw5y4FEthZEjGyUz0sLAlNxZWGDHop98wWMSZDIHtzLiZgAt0J4O72mYT92KJnlS2HB3cXMasz6aPxLFqkZ5fvmCBRBy4FESACVsoUtZ+WtHVB+q8SlYAXvJl3eRianMOKy9MnxGsVS//NBIYgwKD2gAFWA1itI0R66QVbisMT9nGkJLZRYEGtIuUM8ChJ2xek+zJRzyjpFQkfikWTAdyMrrdMAH9vAiYQInBZSbjPLnr2Un33sYkkMyONMJEQU3F5a6jmfPJgBB6SsNLJG33JwSTv70asiHwgIZdFDxUW/lOYKPVXC76yCcQJ8Ib+VEl9egrw0nOxuKijXwEdSI60qL/q8t39RtfIAqwkQFAIojl1qdz5cwihOYU9bAIgpYyBMM+JMKYsT7qYgAkMR4CIdeS0n38eU/1OhL0pBDojjXgqQ0rGBKLJumRIgFSRqR4I9sj3ylDHtiJdXtJPe+wkvjiRFZK2XH28CeRA4ByS3t7j803Y9FvmoGhQBoyesehPMTn6kSS4u2REACOZ9yaqYBrJFDJD4b5CxMIUjX7+Ghj6PUkSdgUuJmAC4xIgNkmqt9z5Z52thvuPq16Suz8+YV/4ngl5hCWBO/ZFUubUJmlG6e5++/S4R3iCpJuOXeG+vwmYwGYESPt7dMJBrj4RYEX0cZvdrbxf6NNTBj3D1swlAwK7Jtz3/8EElnfYj0+13FXvBPhM5LApGAdl0GwtggkkJ3B2SYf0NAng+X9J4S9HBCQ7MhEf7AGwOXMZkQC5tL+dqEIJjLPLiLqkuPVDe/Txf5N9YVNUka9hAr0S4E23z9we/yPpDL1q0O/FeWFMlRL+exPLp9Av+R6u/upEgz+z27v0IN+Ql+Shn39jT/E7e4Bc28UETKAcAiQsS+kCV+9L8IkvOWDQ3RL2lS8vp0lMS9I9E1biCwpHc2BCFvUH/ecTcYUsvHotvgl0IkAIW95S6890qs+HSiLiXqnlxQm5ONHZwK2A3NkYo6VozEcUHLaW5b6XJeIwz/ILks43cL36diZgAmkJ4LL24Z76iA8VPAlgBeP/EnEhYNz501abr7aKQKqodr+SRKCcEgsueK9L1IDnB3/cXKaUK7zE+rXMJpCKAH3Fs3vqKz4iCVusEguDNqnK5/u/Lr+/r0QAJcqMlXuXCpo/5++SrlsigMoSN6X9Q50NS2MlG/kUWqUW2wR6J0DfSb9Xf95TfOaFrNTtgGtJ+lsiJvftvQbX/Aa4oKUKbvOwglk+P1GDrT/8BPfZr2AmFt0ETGBjAntIInx3/dlP8ZlthlInAY9MxAOuF924CnxEFwK8labKi01jLTXYz7MSNdb6Q49bzG26VIrPMQETKI4AMf7Z/qz3ASk+E421RO8AxoJU28qf9QpqP89Dqmh/uMaUatxG+N0UD2r9Gr+cSNKPflqdr2oC0yTAmypZ/+p9QYrP2A+VGCIcewCM+VIw2H+aTWY8rWisBOpJUTmlvummWqaqM/yhpIuMV62+swmYwIgEzi0Jb596n5Di8ysLXWG9XSIW5GW4+Ij1OqlbszzzsUQV84pCyWBcQjzuFA/n7BqExCzVA6LQarTYJpAdgW0lfTRx30Ifw1ZlieXgRCw+WegkKLs6IxPVbNCK/CRRxnbZabexQHv3ENv/a5KY/buYgAmYwNaSWLqP9K+Lzi0xgigTInLCLNKn7Xf3cdOKEeAN9cQElUE426vFRBnlbFL6Invbhrfq+M9NIOHRKJXhm5rAhAlgvPeWxH0Nq5b7FsgMI8kU7pInSbpggfpnIzLhJlcNZk3/dkA2GjUXhKQVNKCmOjY57tOSyIjlYgImYALzBPC0elXiPocXmJvP36iA35+YiAMpiF06EODtt8mgttExvPGWZpXKysdPE+k/44Obi6P7dWiIPsUE1ohAH+HFid2ye2EMU7qdl2p4PlqVnVXSsQkGQN6gSwvMQE7vbyXQfTbw8/NdhfrnjtYAfWMTWGMCTALIclfvQ6KfcTcuzeOIwHMpgiYdJwnbApeGBJ6TqPHdu+H9cjmMlQpiSkcftvr5xOouNUJXLvViOUxg3Qj0MQkgM+H2hYHEA6ven3b9/MzC9B5N3F0SGWB8qkA3jNSzblxRSk3UMVoD9I1NwAQ2EWASkMotbjZwfkLSmQriC4OPJ5gEYAtxhYL0HkVUYLNnP2ssXX8SiIFc2CWVxyXQu87r84W6PZZUZ5bVBKZOgL3wNyXum0hhXlLZWdKfEzA4vMCX0kHraZ8EkBkEHzOo1PGb3TlxoJ+v2tUvXim+ggmYwCYCbE1iR1R/wYh+flBhbPEki+rM+XsVpvdg4hKkJ0VuZgzoSkpIcZlEhiazxvkdSTsMVmu+kQmYwDoQIFgQ9kSzfib6Ez/7GxYEjm2LbyTQ/+c2CFxc689OAPdfkq6x+PJZfotPPiF5ow/T7HyiHV4gS00tlAmYQOkE8M46ImF/dUJhW7UEkyNt+qy/7frzaaU3hNTys1//1wRgX5BasB6vh70D6TO7NqL580p0s+kRry9tAibQAwFCiKfMIvjNwuKTvDRBn81Yh12BS0Xg/Qmg4mtZUqz/VJGmmAhg9Hh1tyYTMAETGIAAsVV+laDPnr3EvHkAmVPdglXbFEHaDkklUOnXYR9o1hAiP0uKtnTjREtJ8GJJijSWLiZgAiYwFAHi5adK0U4/9oChBE9wn1smGrP2SCBL0ZfAxYTMdJGBn3PfWhAFomEdn0DnGbP9C9LdopqACUyHQMpkZSyLX6UgNMT4n/XBXX9+XRJj4NqWFG5/hPs9XyEECcqDi17XBjN/3kGF6G0xTcAEpkmAN/f5fqnr7z+WdK5CMJGvhRwHXXWdnbe2boEMhuzbz0B0/fnoQhoMYr4mgb4zTuTvXuvZY0H1blFNYMoEnp+wXyMUOgbSJZQUsQGY9KxlqPbHJmg0JAwqBd4dEug7G/y/Yl/SEvoHy2gCa0GAFxGyjc76p+jP/QqhxkssA3hU3/8qRN9kYrLM8/sE4O6UTKJ+L3RBSb9LoC8NjUASpWx59EvVVzcBE8iFAFlMv5uoj8MeYLdcFNtAjrsl0PnEApMkbYBl9Z9TZPsjIEUJS0XMjkmAEZ0lcj7Rs66zGq3/agImYAKjELiUJAazFH0dmQMJPJR7YQz6bAKdn5G7oqnkI1IdfuuRRkLEv6umEqjn62CjENG1fm5p8bN7RuvLm4AJZEbgZgldnF+VmW7LxCEGy7+D/fyh14ILAAAgAElEQVQp67KySyao+qDW5fPrl9VEZt/vLulvCfSFERm5XEzABEwgdwJPSNTn0e/dPndlK/kIZtRlLKuf88JCdO0sJj7w0ZC/pGXcqbMEw52Igci3EzQKGgjhMktYDhuOru9kAiaQKwGWxQ9N1PcRM6UEmyfsvHiLrw/obT//pZCxrXO7e10QEECf1Pnuw574igS6oi/GgxcfVnTfzQRMwARCBLaXdEyiPvCwkCTDnXxgAn1L2fZoTZVB7B9BQKWkUrx5gj0hBn/C/N60NWmfYAImYALjE7iiJFZs274JLzq+hIA5rNJG8wRg6E2uhcmVFEFw7lkAFRIS/SRRo39yAfpaRBMwARNYRgDD5UUDetvvWAktIdX5fRLo+8plMEv9nj37qDHcDyWdqQAAL07QAHg4PifpjAXoaxFNwARMYBUBMt+1HfAXHU/W2NwLffb3g/piJ4dNwWRKiv3wEpaAcAdh2X5R423zHfkNLjaZ2rciJmAC60wAe4AUYd/pQwm8k3tJkePmRbkr2VQ+lm2i+0A/KOBteOuEkbD2bgrXx5mACZhAAQSum+jl6NcFRM1jFeCo4IsgHgElbHls2PTwbWzz9rvo2BJmfezXL5K97Xfv2pCoDzABEzCB8gg8LVEfeXABqt8jga7PLUDPlSKy9PPHIAhCQuae9e7SkpixtR3s54//WQGz25UV7j+agAmYwBIC2HB9KUE/SdS9Gy25Ry5fswpwZFBX0g2fMxeFusjx+CAABsi7dLnxgOcwOUkRC5rwxjcYUG7fygRMwASGJnCZBFvCjAtsCxNsLeeC3dr8S17b30tKd79ZXZCm95dBAGSXyv3t/6FBHWcN4umb0fMvJmACJjBNAqS/nfV7kZ9PzBwPY1c0Giyxb7AvK648IEEl557ul7TGJyTQE4MRJkwuJmACJjB1AgyMn0nQb2JcnnvQnLsm0PPepTUIYkFH9z9KePtP4d7I0v+1S6tgy2sCJmACAQKXSBA7n9WDdwdkGOJUJjvfCk4CeEHMfSV8M5a3CSpMxe652RXz++VyCUIboyeBg1xMwARMYN0IPDLBOEEfSgrinMudE+hJePliyseCCjPjYRUh5/LRoI40XIJjnC1nJS2bCZiACfREgLfaLyToR1lt3qonGVNcFj0xWqTP7/rvQykEGeIal02QCAf7gZwLOaq7VmT9PFZKXEzABExgXQnsnmgl9RGZA3xIcMzA9REPiuxLdF+cpA/bZqwlFpnkJagP5F0+vyljHS2aCZiACQxF4HkJ+tPfS9phKIE73IdMgVGD8Zd0uO+gpxC0IBr4h2hROZfHJGisNITz5qykZTMBEzCBgQgwOB6boF9lIpFzeWZQRwIDnSNnBaNGHeRCzjkL0vkknRysRFYLSBbhYgImYAImcCqBFIbjZJy9eMZAd0yQFffhueqH0V7U0OH1uSpXyUWe5i7L/fVzMHrJ3cAx82qweCZgAhMk8MEE/WvuW6vIVx8P2n4m1XCW4wexmdsqM3/8bhk36oskmL1hyHG1jHW0aCZgAiYwFoFLSvprcByhj73yWAo0uO+VgvoxZl6vwX0GP+TtQcU+ObjE7W74v0H9qLg3tLuljzYBEzCBtSLwrAT9LC7aOZdoFMQ356bcuRPM3G6dm1I1eXZO4KqCcSR7QC4mYAImYAKLCWAQSHyU+dXhtr9n+ZZcqXy7oH6skpxnMb5xvo1axuNWl3Oow7cEK4zGe8A4VeO7moAJmEBRBDCSbjvgzx+f84oyYx17+fMyt/k9m7gHGCRE/eLJqJdr2UUS8frbVM78sT+VxMzWxQRMwARMYDUBBsivBftc+uCc06vvF9SPaLlZlOsGFSGjE/EDci0km5gf0Nv+nntWw1zZWy4TMIH1JHDDBP3u5zJGhz//n4I6XiMH/V4TVCJn1z/CVGJV2nbArx//2RwqyTKYgAmYQGEEUuRbYSKRa4m6BOKWPmo5iyRCMNYHvLafczbWeH9QN1jkvAw1auPxzU3ABExgBQHcwqPbr4evuP7Yf2JsaDte1o8/SRJj8GjlHkEFsB3IMqiBJN7+67C7fP7EaDXjG5uACZhA+QTemKAfvmamGBj7jg7qd5cxdYum/X3smMJvcG98LbsM+vVzsI9wMQETMAET6EaA4ED/CPbFh3W79SBnPT6oG9ETRynE7P9nQHgqNVe/+AtJIi9BfTBv+3m0ihmlNfimJmACJtAPgWgQNuy48ObKsaQYR88/hmL/FRwg3zeG0A3veVBQNyYLDvnbELYPMwETMIEVBC6aIAz761Zcf+w/RXMg7D+GAl8ODpJEQ8qxnE0SxhVt3/jrxx+ao2KWyQRMwAQKJfDaYJ/Miu6FM9V9z6Bug7s7knIx4h73a0lbZVoZjwpWBlyumKluFssETMAESiRwsQTbss/NVPGtJf0mMO4w5rBKMliJGi48ZzBJ293oTAniUL+z3S19tAmYgAmYQAMCUVsAXNa3bXCfMQ55fmACwOrzo4cU+ltBYS8zpLAt7hV1a/TefwvYPtQETMAEWhBg3IjGBbh/i/sNeShGivVt5LafvzqUsJcNCvrNoQTtcJ9o/OlPdbinTzEBEzABE2hG4L3B8ee7Gcee+U5QN1wmey9PCArJ9kGO5TpBvZix5ZzSOEfmlskETMAE2hC4eoJ+OtforE8O6jbINgBLDW2XJ+rH57r8H404RXrHnFMat3nISj72jJLwMDlYEmFAaa99/DtC0tsl3VfSdiMD20bSXpJow+Se6ENfrsm1ucfdJGG4NGbBW2ffqg6oi750pg29WtJt/XyPWd2b3Zt2WB9T2n5+z2ZXy+cXxsa2utSP/3zfqhAgJ2L9j+1AjiVFZqb75ajYmsl0FUnRZbT6A9X0M14tDIpjlJtJ+kmw42iqZ/24YyTdeAyFJd09aDVd16PN529LuvJIOvu2pxO4TbC9E4Rup9Mvl9Wn7wV0Y2xmjO6tPCwgHA/aE3uTLHZhAim06Qjmj8WF48wxEXx2kMBNJZFaer5uhvqdh++/gzq0Pf2ewWicUTZ0pBjODlkeN2Idw4sUrmNNfIbknPO9iKH/g2A7yHUsempQrwf3WXEYuUU6DQwIcyzfCOqFXYTLeAQukiB4U6Rdz85lEnCLgTCw2vG3YLudyR35+VdJZG0bovDmF1mBjOhZP/fEjN8gh6iHHO7xiGDb/3GmWzqXD+pFfp5eyrmCSRlY2sixRI1KeCM4d46KrZFMbwg+NPXOPfoZWxDsEPoun85I5yGyXsKU7KHR+kl1Pj7pLuMROKekPwbbQ64rOfQhXdspEQ9hk7xgZNRVKM57SnKJ0lzwNUG9ON9lPAIY4P0lWIeRdr3o3Ov1jIOoX4vuO+Z3RGrrs9wwM53Zbso1qEyf9ZDTtV8ZbBNvy0mZmixPC+p159q1kn2MWsnvmkySdBdi8PhDEDYrCC7jEbhRsP76GDT73hK6d4Y6791zE3hShjrn6k7Wc1Vkc/nLBbeE2ELLcfWWUPKRfil54iPc2yKxilnSyLE8MAgaq2CXcQlgER55WPo49+U9I3lshjo/pmedX5GhzqyKuoxL4DPBdoFhe44lsg3wq9TBjqL75E/PkbCkLwUbz36Z6rVOYuGf3ccgHrnms3uuANpdRL4+zn1QzzqTyKUPuSPXvFXPOvvyGxPYJ9guGANyLM8M6pXUXTXqmnCNDAlHMxqyB7h9hnqtm0iXCj4okQFg2bks0fdZMF5adu+xvu97OZyAS2Pptuy+l+izkn3tRgTOIokkP8vqqMn39CG5lWhk2qTbkF8OAMZlZgir6LYVeEBAJxoVlucueRAgvneTB32IY9hXPE/PWEilfUJGOv9WEpk0+yznzcTtcdaGcg1q1mcd5Hrt6PYQ9iW5FZ6nkwLPONExkxRcCv4ZECTX9LjRjIbM0FzyIHCXQPucdeipfr5wICSPykjn/xxI55dkpPOeA+ns22xMgOXuyPN71Ma3GOWIQwJ6EaTr7CmkvmNACColxxC5lw7qRIMhGpVLPgSi7pyRDmR2Lpkuh3IN4w0B//vZvcf6SeCRvt/+Z60Mr53oxD0FJ6/+zWokn5/RYG5J98wTYcGuJtJekySnw6I5IsSFE8FIeRnCQEZ0emRKYXytJARITvPaYL1G2gRLbudLoknzizDD/8CIOh8miaQ8Q5bzS/rCiDqTGGjsREhD8i7lXvTJkef3oAwVjcb7SLIaGXFHODJDqIgU2TP+l6QLZqqXxZJuXmUBjGxbtelIaEu4kw71Fjxfx6xE4Y5GNrwhwuRyD2yC2HYZaxUM1sQ8jyROaVPHtCXczcg34ZIngR2DW9Uk1BqrPa8iGol+SWK0UGGga/OgzB+bZAYS0mDLkwlINC9nm9/pCFzyJ0Do6qtWiVuwmk/979oZTgQxlLtmD7rO2HHtvg0c27Yssp9RFzMZU/+kDdnbp22tjHP8J4N9+5XGEXvlXV8a0InJOitmnUvUx3KoxChtFDwwAJSJwkPa3MzHmoAJmIAJDEIAe7M2L3PzxzI25FbYx5+Xs83voWBVBwduTnz2s+ZGUxLbEm0A1o9lKXDofd4MEVokEzABE8iOAB5rZKes99ltPoeXzHsgglFxRCdcJDsXrN3bAKwf21taws7aSKQjrsvY9vMQWc8C6vlUEzABE1hrAocG+/idM6QXyfzZOVw9SRIiRkX4KedWopaiD8hNIctjAiZgAiZwGoHotvWjT7tSPh8eF5jUMIZjD9W63CFwU96sc/SrZFWi7Vv/7HgCK2Bk5WICJmACJpAnAQw2/x7o5z+boVrRXDy36aLTCwIQTxnRLWqZruylRPLGf2TZhf29CZiACZhANgQ+Hhi7eNHDliCnQuhvcs/MXkbb/nxOF2UimfJydJWLWlPmGNGwS736HBMwAROYMoGHBgZLBtccwzyzMtF24J8d3zovwDZBy0NSGeZWIhEN2Udx8J/catTymIAJmMCWBOirI/ZrRHvMrUTSYbPy3Sp65Sh7Dj0T/1FgBkWMdxcTMAETMIEyCHwl0N//NEMVB7XJ2z8Aj5lXbtHCosl/npVhg7BIJmACJmACiwlEA77tsviyo31L/JnZkn6Xn4TOblzeGLgZsYtzK6Qr7QJtds71c1PI8piACZiACSwlcK1gn59jwrdjAzq9bimpBX+IJADKMVXmhwPgTpaEFaaLCZiACZhAGQTOKOl3gX7/fRmq+eaAPiQta1RIMUrGu9nbb9ufrZYaGkkUO4jMYX8M6POe2O19tgmYgAmYwAgE3hHo90+SxCQipxLxbmBMb5S6m+XutoN+/fgr5ESsCkhUl6/tZ7v/ZVahFscETMAEGhC4b3As263BPYY8hGyFbcev+vFkzdywPCxwkz9kOGuK6AO8C29IzAeYgAmYgAnkRiCazv7hmSkUXc1mBWHD8trABOBTG159+APeHtCn8b7J8Gr5jiZgAiZgAhsQODrQ/+e4/UuQvfpbfZvPjeIbfC1wA8IH51Z+FtAnlEoxNxCWxwRMwATWjMBrAv3/8ZL+IzNeLw7oQ3TflYUlhki8fPZccioXCcBiZnWPnJSxLCZgAiZgAq0I3DM4BhBDJqdCRto2b/31Y8knsNKwcdfAxbkREQRzKgzgdQBtP180J2UsiwmYgAmYQCsCOwXHACYQOZVrBvW5zCpl7ha4OBEAG7kZrBIg8d9Ywm876M+O/0ViWXw5EzABEzCB4Qn8JDAOvGx4cVfekTE2kudgZaKjpwZAHbNS7HH++K2APu8cR2Tf1QRMwARMICGBSGTbLyeUI9WlIhOaJ6wSgkFv9gbc9udhqy48wt+YKf0zoA/hg11MwARMwATKJrBfYBz4u6SzZKb+BwL6vGWVLt8JXPjpqy48wt+uG9CFyc9VRpDZtzQBEzABE0hL4KrBseAaacUJX+3ZAX2+vuzuWAdGPAD2Wnbhkb6PhE08RRIeES4mYAImYAJlE9ha0l8DgybZcXMqewd0+ZOkMyxSZufARXljxoMgp/LKgD6fzkkRy2ICJmACJhAi8MXAeHBw6M7pTyZEcdst+vrxC73bbhW4KPskzLJyKp8P6HNQTopYFhMwARMwgRCBXgPohCRrf/I2kv4RGN9utuiWkZj52A7kVIjeRBrf+qynzed75aSMZTEBEzABEwgR2CcwHixdNg9JFDv5qIA+CzP2vihwwXfFdEl+9sUDujBR2D25RL6gCZiACZjAWASuGBwTLjWW4Evue0hAn4Ur3O8PXPC5S4Qc6+vbB3RhaeXMYwnu+5qACZiACSQnwBb13wLjwp2SSxS7IHl32qxq149l8rBFOTJwwUZpBre4Y39fPCmgizMA9lcvuVwZDw9ce+4v6RmSXuV/a8mAuqcNEMLcXj+5PJ39yRFxcz+wP7E6XZlUxfVBvc3nb87fkT1zEgW0uUj92FvPX3Dk39mSqMvX5vNbR5bdt++HAG385pJID/3HQPto05Z8bPfncGh2f5DEs4+BVG4Z4Pp5ItbvqgTB6dqucosMG1nlpv/brOwYAAPQy292tfF/+X5AnwPGF98SJCZwG0mRsNBdOw2f173DHZMdb0i3TNwGfbnxCTw2MC58Y3zxN5Mg6gp4nvrVWAKLPHBnr19s5M8ENMItsas+uEO6TIPADpIODbSFrm3I53V//nJi925J55rGo2AtJEVc3QkOl9PK0PbBfm0zQ3cyBHV98H6XWdO6cEAXGJA+0qV8Alj9/jTYFro+Ez6ve3+SG7vjMlzhLP/pHEcDLPkj7euC44i99K4nBfS5bf2qEYOCpbGF6zcY8PP1AlBym+UNiG1StyJnduThiHQSPjfWyebI7/eV0eikHpI1VAZDz8jq8A0yYxbZ1nxIXRfc+Lo+eCyx5lQI4tNVF3sA5FST3WTZRdKJgTbQte34vO7PXQnsWOm8bLcm6bMyIvDDQN/wgIz0QJT3BXR5Zl0XrF+7PoQvrF8og89PCehCmkWXcglsJykSIavrM+DzuvcfJbH7gSTSjLuUSyCSSje3eDcvDYx1b6pX4eGBCz2ifqEMPr8+oAtAXcolgD9/SQOKZS2vvl5W7uNhySVFAujgQpxT+a9Af7dZwjtmtl07ozvkRERSZDIDUJcyCVxF0r8C7bhr+/d53fuOEtn9UxIuWC5lEmDvu2u7OyIzlYlO2FWX79V1ieyZElEtp4LVblcoeEO4lEkgEsq6a3vxed2ftZLZLQylWuZjs3ZSE7Sua9vDqyincq2ALsfPFCFG8r8DF7rk7EIZ/NxKEjP0rhV8pQx0sAjtCdAGI224a3vxed2ftZLZ0dYu1r6Z+owMCESSAjG25BQy+tKBsY7V0k26XChwER5iAhLkUi4R1MVBP3KpyXZyRAw/Sx6ILPt4E5AntGuiPjoTAvTxkeeG8TKXcu6gLudDEd56uwJhRnSGXGhIum5Al5Mz0sOitCPwpUC9d237Pq97vzEFdrntB7d7Ytb76EguEGKM5FKIehuxe9oUwv+mgc7zhFxIVHJEEiR8OzNdLE4zAtsGt32mMBhZh+EnI6QNP0uzJuqjMiMQyRWTm51YxH7vRtTLXoEJAN4DORVSe3btDD+ekyKWpTEBYlp3rXPOI0f4/0oiUch/+99aMKCucReORIWj7VyhcSv1gTkR+ESgz3hgTopI+lFAlzujy4MDF/h8ZjAi2Z5y8/HMDG224twu0H5ZPtsjW80sWN8EbhxcQiXLpEt5BCKB73Kz/Yhsf96PqosMmrhe5VSeFxgMHOAjp5psLss+gTr/avPb+MiJEiCXSdcVpLtPlMnU1XpxoM45N6fyoYAuj0KRZwUuwDJaToWl3K4P81NzUsSyNCZw30CdO/RzY8yTPfCDgfZzn8lSmbZiTwzUOasHORVC+nYd856GIq8MXICwijmVSHKEh+WkiGVpTMATgMaofOACAp4ALIAy8a8eFBjzcrMVi6xmbAp9H9kPeXxmDQWbhK6zIS/nZVaZDcXxBKAhKB+2kIAnAAuxTPpLLPm7jhPfyIzMkwK6bEoIFAmhigFhTiWS0+BmOSliWRoT8ASgMSofuICAJwALoEz8q+sHBs1jMmPz0IAu70WXTwYugAFWToWc3V1ndlfOSRHL0piAJwCNUfnABQQ8AVgAZeJfRVyHf5MZm3sHxryPoUtk2fyumcGI5AFwbO/MKrOhOJ4ANATlwxYS8ARgIZZJf7lzYND8U2Zk2Lru+tL7WXT5ZuACOaUCJqlRVxCcl1NOg8zaWNbieAKQdfVkL5wnANlXUXIBzx8cK3JKCBSxZ/gaZCP75rdKXjXdL7hdsFLP2v3WPnNEAp4AjAh/Arf2BGACldhShehYcY6W9+vzcIJRdX3xPRLByHHc9QI36VOzltfeIaAH+uc0q2up+lof7gnAWld/WHlPAMIIi7vAfwQjQF4wI40xXu86fv8YPY4PXABrylzKBQJ6EBLWpUwCngCUWW+5SO0JQC41MawcfwiMF5caVtSVd7tBQI9NBo0nBS5wjZWiDfvHiwb0+POwovpuCQl4ApAQ5hpeyhOANax0SWSy7frmfLmMkF0roAdec4rkRr5SRiCYlXWtUCZBLmUS8ASgzHrLRWpPAHKpiWHl+FVgvLjisKKuvNtVAnpsGvd4++06cO66UrRh/3j5gB65+XYOS67su3kCUHb9jS29JwBj18A49/9ZYLzIKWZMZNzj5X9TPvSuE4Cc9kKolK560BhcyiTgCUCZ9ZaL1J4A5FITw8qBAVzX8eLqw4q68m6XDujxF64cCZ7DvnsuJbIX8qNclLAcrQl4AtAamU+oEfAEoAZjjT7+MDBwXicjTgSw6zqR+Tt6/DtwgR0zAhGxhtzkD5mRLhalOQFPAJqz8pFbEvAEYEsm6/ANfX7XgZOxJpfCGNxVj03eb/zX9QKeAOTSDNZXDk8A1rfuU2juCUAKiuVdwxOAU1f/9dfABCCnLYBrB/Q4urz2a4krAp4AuClECHgCEKFX7rls+3Z98WW7OZcS2QLY5P4ecQPMyQjwaoEK/UkutWk5WhPwBKA1Mp9QI+AJQA3GGn08LjBeXDUjThEjwJPRI5JCNyc3wEiKx19kVKEWpR0BTwDa8fLRmxPwBGBzHuvy2y8DE4Cc4gBE3ACJAqxfB0DkFAiIyUjXJZ3frkurn6CengBMsFIHVMkTgAFhZ3SrSAj8nCIBRgIBMQlSJCBCTqGAI0shv8+oYVqUdgQ8AWjHy0dvTsATgM15rMtvLH93fWG8ZEaQIu7vm7a+jwmAuF5GIC4e0OOUjPSwKO0IeALQjpeP3pyAJwCb81iX3yIRcC+SEaSI+/sm4/fvBwbOnNIB7xTQ428ZVahFaUfAE4B2vHz05gQ8Adicx7r89o/AeJGT+3skHfD3qOzvBEDcKqPWcr6AHiwFbZ2RLhalOQFPAJqz8pFbEvAEYEsmU//mLMGx4twZAbpNQJdvosfXAhe4Q0YgzhzQgwnAeTLSxaI0J+AJQHNWPnJLAp4AbMlk6t9cIDhW5PSyuGdAly9T0V8MXOCumbWUSFCjnAw7MsOatTieAGRdPdkL5wlA9lWUXMDLBMa83OzF7h7Q5QjIfjJwgX2SV03sgqT17WrZiTuFS3kEPAEor85yktgTgJxqYxhZ8F7rOk78fBgRG9/lXgFdPs5d3hO4wEMaiznMgZEMT3sMI6LvkpiAJwCJga7Z5TwBWLMKlxQxnPtuZrj2D4zf70SX1wYu8MTMYLCn0XVmx16KS3kEPAEor85yktgTgJxqYxhZ7hIYJz43jIiN7/KUgC6v5i4HBS7wwsZiDnMgSxpdJwAMJC7lEfAEoLw6y0liTwByqo1hZHlAYJz4wDAiNr7LSwK6PIe78BbfddB8Y2MxhznwXQFdHjmMiL5LYgKeACQGumaX8wRgzSpc0n8Hxom3ZobrLQFdDkCX/QIXyG029JqALptmQ5lVrsXZmMDegTrHBdZlvQl8I9B+sMB2KY/AiwN1/vLM1P1wQJcHo0ukA/1CZjCeFYDxpsx0sTjNCNwuUOf/knTjZrfxURMkcFNJ/w60H4KwuJRH4B2BOj8wM3Ujdm97ocutAzCwus+pPCygyydyUsSyNCYQSQPN1tffJb1e0mOrpUGWB6P/7i3papL+o7EW3Q/cQRIGrLT9qNzrcj51/Yaq7rtuf3LeFbpXm88ckQCGfF3r/YEjyr3o1pFcPrfggtcOwPjdIolG/O5OAV2OHFFu37o7gbNKisT17toRNDmPbFv36WkiQPKrt0v6Z6DNN9HBxyweLJg4En3UpTwCxwaeGV6YcyonBXTZlM13l8AFWEI9Q0Y0IqkRAelSJoFINMshBjgG6pThQ28kiRTWQ8jueyzmvCmKWpmPy9pLHckEeKWM6J0puIVFRERdMNiRnCsjIBcN6rJtRrpYlOYEnhys9yEGOQxUU5TLS/pjAfoOwXTMezw+RWX6GoMTYLyKtBuSzuVSyF8T0eX8KLJNcBaxcy40qresiFGP8wFkVJktRLlEsA1HHqI2596whU7LDuXNs809fWx6Xqx88rLhUh6ByIo32z45rXhfOtAX0IZPW5X8beBCm/YRMmoHxwd0uX5GeliUdgTeG6j3oQbJD7VTaYujI1tcQ+m4DvchfLpLmQQiRu/HZaZypD/4dV2XiC9sTimB0elbgYHA0QDrraKsz1eWxKw25wGIbJXkIu9anpG5fjmzTyUbRpdX7FqBPm90Ag8PPEO5ub1HjN6/Wq8JAvp0fUAeUb9QBp8jkb2II+BSLoFXBtpx1/bf9rzIlhlRyNrez8enZUboVZdyCURC5747M7UfFegPDqvr8qrAhV5Uv1AGnyMVTChhl3IJbCfp+4G2PMRgedkAXrJ3DSGj77GY8/ck2VA40IAzOJVtuK7t+9kZyF8X4aUBXTaLaPikwIUOrUuUwedIMKBvZiC/RYgRuJwk4lN0fcj7PI/l47MF1Isk7upTr3W49gmSNrlNBerPp45PIJIyft/xxSAAvFEAACAASURBVN9MgvcF+rlNeQBmV0Oxrg8x9gM5FaIbddXllJ6CtuTEZx1kuWamfvKfDcKP5DHv+kz4POlESVcP1p1PH5/AGSX9LTA+XG98FTaT4NsBXe5Vv9LNAxfi4cipsMca6bQukJMylqUzAcK0YrUbaQupzyUPeaQQ+IOIlanl8vWWM/2xpF0jleZzsyFA9MxIW89tbIhEAdwsBwrBRSJgzpFNFUt0kvhrdtUnt1leRmiLE4WgH5EU0V3b0KLzyNqVIjcAsQRyDX28SO+SvyNpzPbFtXoLvIxAZHWY4Fspnt9lsrX9nnYZebY2286KRkdiApFTiezzPCAnRSxLEgI8+BFX18iDxrm4D50ziSanXoRkQ5FJblSfqZ9PmmgyBbpMiwBJoLq23a9nhiKaBG0LW6RIfOTc0mJGciRvZh2ZWaVbnO4EmL3Tqb9F0smBjqBNB8Iz9cwq2mZ3yRefSRIvBqo28vjY5bxYTiUl+E0ye9NbXPv+tguBiBst+TxyKrcPPPt/WKQILi5dO4j9Fl1wxO9eHNCFVJEu0ybANhHpeu8n6emSiB+AK2yqf8+VtLekvvNkMKnBOA2L3pcllD8Vh5yvQ51T9xhAX1USBmIu0ybwncC4QFvJqfxnQJeF3m6483WdADwvJzJVx95VF2ZHOcV7zgytxTEBEzCB4giQ8yaybXa3zDR+YWC8Jp7IFoUgB10HzdwC6DCj76oL55FcxsUETMAETGAaBKJ75iTeyakcEhjjCCm+RYnEAvjuFlcb9wvirRN0pesk4I7jiu+7m4AJmIAJJCSA4WzX8YD4MLmtCkcinm4WA2DG+LoBQCytnJZacHbBkX9G/KWfOrLsvr0JmIAJmEA6Ai8IjG+5JQFiOyPiCkygtC3KeQOAmFnl5gr4toA+pJZ1MQETMAETmAaBzwfGg9w8w6LbGTssq9LfByDtteyiI30f8fn8zUgy+7YmYAImYAJpCfDG/JfA2JZbbJh9ArocvwrtlwIXXmhYsOpmPf8tEvXJhoA9V44vbwImYAIDEbhGYFxjLMCoPKcSMdg/YpUiBMLoaiiR27L5jgFdYMAsy8UETMAETKBsAhGfeYzJz5qZ+h8MjG3/u0qXJwYufMyqC4/0t58F9HnFSDL7tiZgAiZgAukIEMWv64vtt9KJkexKkSRnm6UBnpfozgFQ/5a03fwFR/6dZB5dK35htKSR9fHtTcAETMAE2hH4aWAcyM0A8OySGGu7jmt7rkJHsIOuF+a83HJmPzygz78k5ZTlcFW9+W8mYAImYAJbEohuBd9jy0uO+s21AmMaY/QlV0lPsANC4XadBBBMKKcSjQjojGA51aZlMQETMIF2BBjAu45nnHeRdrfr/Wg8ErrqQxK0DQMakQyn6w2IT5xT2UrSnwL6HJiTMpbFBEzABEygFYHXBfr/X7S60zAHvySgz+FNRHxp4AafanKDgY/5TECf3CJADYzOtzMBEzCBogn8OND/Y0OWW4mMZy9qosx9AsCImUyq1ZwK+di7rmjgArJ9TspYFhMwARMwgUYEdg70/YwZD2t0l+EOYmxljO06nt2ziai7BW6AYJyfU7l1UB8nBsqpNi2LCZiACTQj8KBg33/lZrcZ7KirBPXZtYmk7JtHwiY+pMlNBjzmnMHECY4HMGBl+VYmYAImkIgAaeq7vi1jMJfbavb+AX0Y0xnbG5WvBW5ENMHcCnv5XRvCj3JTxvKYgAmYgAmsJIC1+wmBfv+wlVcf549vDehDmP/G5eDAjXIcMEnv23UCwHkXb0zOB5qACZiACYxNgJS3kT7/wWMrsOD+Pwno9MoF11v6Fcv4EXjnW3rlcf5wnaA+7CW5mIAJmIAJlEEgYvzN2HeJzNSMBjRqldGQiH6RCcDtMoPHXg57Ol11IvmCiwmYgAmYQBkEvhvo74/NUEWM0buOX5yHAWHjEg2gQ7rC3ArZCrsC/KskYjC7mIAJmIAJ5E2ALduufT3n5Wj4fVBApz92MWgkqE9XiI0iDg3chvYL6AOHuw4sr29nAiZgAibQnsAjgn397dvfsvczjgjo9LEu0kUM5/7cxuWgi3AdzokmOiKlpIsJmIAJmEDeBCIvr//IMAncNkHX/Cd1qa4bB2YcvDG32nPoImCHc34Q0IlllDN3uKdPMQETMAETGIYAkVv/HujnCbWbW7lGQB/G4ht2UWi7YACdR3e5ac/nPDcI8pY9y+fLm4AJmIAJdCcQCWXPYJlb+F9IHBAYt5gMnbUrzq8EbvyJrjft8byobyjxEVxMwARMwATyJMB+NwN5l3//lnThDNXCpq6LPpwTSmj3gsCN/yaJVYScCtGhfhnQ6fgMbRty4mtZTMAETGAsAucNrlrzwptbOVtwS4NV787lDoHBktlHjkvmRETqOpvivNt0pukTTcAETMAE+iLA8n2kb2epPbdy26BOofHq3JJYFukKtVH+4YGJ3zSgDxxyzBE9MELfzgRMwASyIxDJ+ULfftnsNJJeFhivGLt3iOp0ZECAo6I37+F8ghydGNCJrEpkGHQxARMwARPIg8BFgi+reIjlWH4YGKuIhhgukRkIs6qLhSVIf4E3B6Ci077pRfIVTcAETMAEOhJ4XLBPf1bH+/Z5GmMn403Xf0lW4G8dEADB798noY7XZl+kK1TOI9CEiwmYgAmYwPgE/kPS94N9+u7jq7GFBGQkjIxTN9/iih2+2DYYhejdHe7Z9ykkB/p1AC57KxftW0hf3wRMwARMYEMC1wv05Qyw39vwDuMccGhAL6Lxdvb/n1c34lv5+y6JCOYF6OH3lwbg0mge34NMvqQJmIAJmEA7Am8M9uWPaXe7QY7mJfWkgF4fSinlIwOCMFheK6Uwia4VTXl8nKQzJpLFlzEBEzABE2hP4ByS/hQYn/4l6ULtb9v7GdcN6MSYmzSiIe4RXLTrv2f0jqvbDaL7RthHuJiACZiACYxDIJrltVOmvAFUxSix63jLeZdKLeNPAgLhypBjIUtSBPIHclTKMpmACZjAmhD4erAP3ydTTkcH9Dq2D53+JyAQg+wV+hAqeE0M+SKBjlg+ytHNMYjFp5uACZhA9gSuGhyTTskwXD3QrxTUC9f95OX2QaEOTC5Rmgt+LqjXM9OI4auYgAmYgAm0IBA1/uP8HAtjSmRlupetaZISkOCnq2Dst+dY7hXQCRa/lbRNjopZJhMwAROYKIELBMcj+m4M7XIsEdu0v/a5qkGK364TAM7bNUPaZ5F0QlCvu2eol0UyARMwgakSeFqwzybEPQGEcitslUfG2I/0qdCDgsI9pU/hAtd+flCvb2bamAJIfKoJmIAJZEmAFddIIDcG2IdmqZkUndjcr0+9zhPMt5wkOUEPCl4yaAxIg9qjB7l8SRMwARMwgc0JMMhF3pL/KIn4ATmWSPK9f0pijO61fDoIP8eUiwCLbm/0uvTSa4364iZgAiZQDoFvBcegV2Wq6uWDen18CL1YOonMvp44hJAd7rFnUC+Y7Nbhvj7FBEzABEygGYGbJuinc0z8g/ZPDer2wGYIY0edXxJLDV0nAczecizEXv55QC945OpWkiNvy2QCJmACbQkcHuyjv9D2hgMeT1KiruMqY/J5h5I1WgmXG0rQlvd5cqACqLi/ZxpXuiUGH24CJmAC2RGIxsenj8418l90+Z+t+cHK/sGB8nmDSdruRhhQkEax6yyM817Q7pY+2gRMwARMoAGBjwb75p9J2rrBfcY45IVB3R4ypNBsAxAGt+tA+RtJWw0pcIt7vSKgFzz+IumCLe7nQ03ABEzABFYTIDxuJGw7fTNZbXMsTEoIKNd1PGUs3nFoxT4bEBhF7zC0wA3vd/GgjQO6vajhvXyYCZiACZjAxgQOC443J2fs+nenoG6f2Rhf+iPIN9x1xsJ5OWfSe3dQN1YBcswxnb4V+IomYAIm0C8BouNF3/6f3a+Ioat/KDjekBJ58LJDMBYzVos7DS51sxtGs0wxwXl5s1v5KBMwARMwgRUE3hscIImPP/gS+Qp96n9iuzjiVUd+nt6D/9QFrn8+NFgxj6tfLLPPUU8HPAKcKjizSrU4JmACRRG4WoK3/9dmrPETgmMoq9WjldsGhT8m4xj6pFSMbHFwbq4Rp0ZrML6xCZiACbQgEH0Rw0AuV7dzkhH9KDjO3KoFy+SHEjznV0EFrp9cqjQXpHK+EdSNVYCd04jjq5iACZjAWhFgcIu+hL0zY2I3DOpHQiTG4FHLQUEl3jCq9KtvfrugbjTeQ1bfwn81ARMwAROYI3AGSV8P9r+8/WNAmGt5U1C/5+Sg2C5BJQi8c84cFFkiw5eC+jEJcKbAJXD9tQmYgAksILB3gn73bQuum8tXZCP8U1DHbBLrfTmoyChuDA1bQoplKLYSmNG6mIAJmIAJrCZwZknHBscULOuzGSAXqBuNpvvFBdcc7SvCEEb2an6Y+QBJAomIfpx7z9Fqxzc2ARMwgXIIRC3j6W/fnLG6vAxGjf8GyfzXlCHLGdEY+uy351pSpKAk0+C2uSpouUzABEwgAwL4xZ8SfOHi7f8yGeiyTASi4EZeKAk0l922OfstEaVGCWe4rIYWfB91R4HNExdc11+ZgAmYgAmcSuAtwXGEfjZnw3K0jI4lWa5upEjVSAS+XAvuipEJDucys71wrgpaLhMwARMYkcC1EgT9Ieof+VxyLVdOMI5cM1flvhpUDreInEs0IQWTAK7hYgImYAImcDoB9sWjxuT0r889/ZJZfoqucHwtS60qoe4bnAAQOCfnJDqXCOY/mK0gEEHRxQRMwARM4FQC9w+OHfStJ+S4N16rYOwbGONm40CXn1kbk28j6TdBBZ9ZA5bjR1L9dqm4+jnHSdouR+UskwmYgAkMTOB8kk5M0K/m7E4OUjIS1seBtp9/KwkXyawLA3hbxerH0xBytpbfvppp1mXu8jmLKE5ZtyQLZwImsA4E3hEcM+h/vy9pq4xhnTXBuHFgxvqdJlqKZY4Hn3a1PD88IkGD/YekK+apnqUyARMwgUEI3CJBX8oEIPdtVVYnurwozs5hvMh5e3yzxvKuoLLM5nKOnLe1pKODOlKxn8tcz80q1b+YgAmYQEICrPRGI/7Rj+buQs5YRrC72WDe5efbE3Lv/VLXCyoLoDv1LmXsBtFgDrNG8PCYGD7bBEzABIokkMKeijfj3TLX/q4JxkNcJIsq3wwq/d0C3o4/ENSRSQAJIS5VVM1aWBMwAROIEbi6JCL2zV6Euv5kEpFz4e3/20E9yYpYXIm6BNIg7pK51hdJELYSPT8v6YyZ62rxTMAETCAFAQzi2ObtOujPzvuVJMLQ51zulkDPe+Ws4DLZsMjE3W1WWV1+fq+AVYAUiStg8+hlIP29CZiACUyIwEuC48JsLGFwzbnwUndkUNefSsLmrMjyn0HlqejcK5nKiVYyehLCctcia9lCm4AJmEAzAnskCPdLf4nh3380u+VoR90jwfiXe2yDlXBZ6okGBvpBAcvjGD3+O0FlE+YxZ1/WlZXtP5qACZjACgIs10dXhRn8/5Z5tj8Q8PZ/VHBM+LWks6zgWcSfDghCoML3KkDTNybQE12fUoCuFtEETMAE2hIgSx99XPTf09reeITj906g52NGkDv5Lc8u6fdBGPhQnim5ZGkveF5JvwvqyYOBZSyZB11MwARMYCoE9kzQN9I/YjyY+1sxb/9RI8eTCjBwbNw2n5Gg8tlPyb3sk0BPGvnPJZ07d2UtnwmYgAk0IEAK9BQvR/+SdJ0G9xv7EBL2RFc5JrUSvIOkPwahlLAKQMN7T1DPWcP5YAFGLmM/aL6/CZhA3gSwacLNedavRX4+L29VN0mX4u3/lCm+AL4wQSO4dwEN4DwJDB9nD4mjBBZQ4RbRBExgKYEXJOj36Q8xBs996R8I+ybQt4SJztIKX/YHEhng6jYb3Lr8/EXmmQJnuqcI/QgfckcTMcvFBEzABEojcKtE3lEs/V+3AOVJ8f7L4BjHGLljAbp2EvGVQTgMik/tdOfhT4omRJpNkNj6wJ3SxQRMwARKIbBTgvS3sz7woEKUxjthJnPXny8tRNdOYl4gQejcP0vCqCT3knIrACNKFxMwARMogcA2kr6YYDBkEC1l6Z8VbvK6dB34OY+9//OXUMERGZ8ZhASoN0UEGPDcOybQFX1xCSlh/2tAtL6VCZhApgQOTtTvlbQF+rYEOh+YaX0mFeucCZaGiLpXSnrEVA/DzZPWgi9mAiZgAukJ7J9gIJy9RZeSH+UaCWwdjpdEzJy1KEQ4mlVy15+4luQeC5rKZP+epEZd9Zydx4PlYgImYAK5Erh2FaZ31mdFfn66gERw1ANj0OcS9O+PzLVS+5DrzJLIchRpIJyLtX0JZZcE+0N2CSyhpi2jCawnAYz+onlfZuPBbwuyhE+R8IfAb2u3xXv/BBMAJhGlWMg/MKgvoTRdTMAETCA3AgxeXw32b7PBn+1d3AdLKOj9kwR636cEZVPLmCJXMo3mcakF6/F6XV0DMYbBq8DFBEzABHIicIaE0U/pz1+ck3IbyPKkBIM/OQNyz3OzAYbuf75TAoB/kIR7YQkFA8gfd9D5LSUoZxlNwATWjsDzO/Rns7f9+Z+kQ2d7uIRywQTh7dH/DiUo25eMGFB8OUEDemdfAvZwXSxG20REPEESjc3FBEzABHIi8IAEffdsEkCyoIvlpNwGshySQHdiJZRgyL4Bitifcedj32fWELr+vG1MjEHPvk1Da1n8/7GsdTEBEzCBnAiwT/+PBP02/T2hfktyc0b3ruPU7DzGvBLCGw/S5gjsMwPT9edxks42iLRpbrK7pK+s0PsTki6d5la+igmYgAkkI3DlBBFd6/38Y5NJ1v+F8NX/2Yp+u67Xqs+v71/Ucu5A+MOTE0B9UTkqnybpVSQ9QdJrJb2uMmrc7bS/+oMJmIAJ5ENgZ0m/TtBXzwZHltJLWgZ/WQLdS7JbG6zlpQgOxFLSNQeT2DcyARMwgfUhgC1SFyPm2WA//5M4/+coCN/VJP0zwQRgrYL+NK3frSXhEjHfSNr+/m1JWzW9qY8zARMwARPYkABuyEcm6J9n/Tkrvpfb8K75HICr3jcS6A9Dj09L6vUmCQDTwEraU1qCwl+bgAmYQBYE2PdOFeiH/pm3aAyhSyps084mL5GfJRk7jlI/70sAmpTBlxxFet/UBEzABKZDgGh3n0nQJ9cHzf0Kw4Pdw18SMHhPYXqPIu7FE8EmmURJxiWjwPZNTcAETGAJgW0kfTDBwFcf/F+65F65fs0YgkdWXYcun3kpLSnOwaj18fQEwKmktYyxPGrN+eYmYAJTIIBNVorV2Ppg+ZECw97um2gsesoUGsVQOmwr6dgE4DE08axrqFrzfUzABKZAgDf/9yfof+uDPynRS7L4px5ZjcZlr65Hl88/XMdsf9EH4YaJIgSSq5nEQ+tQiKN9b0nvlvQtSd+V9DFJuFg6mVC6FoBR1K0lHSjpHdUeKUZS/jccA/al3y7pqVVdlBQELF1LTH8l9vw/mmDQqw+Uv5J0kfSi9npFkhwdnoADEf/26FXSCV/8NQkqgIb4+Akzmql24w1SU/5R0sNmB/tnawJMIknJ/IGEIVDrnaQ/x960CEvLWyt1ROft0p4AqdU/nqjPnbVnwpmXGNgsRaY/GLyyfTX4jBkBlox+nqBB0jlcfXbRCf68iyRSBs8eulU//7fAfbixq2wvSSzjreLqv+XDhwAzdx270RR2f1ZQPpW4jWP4dr3COCAu0Vmb9qernvtfSCIDrEuAAEutqyA3/duPCssV0BTZLpL+1JIRb0rM9l1WE7iwpE+2ZNu0Pfq4NM/1Ko68zV5odRX7r5LOnSgra70ueOkqzdefxoD9GRPIui5dP9/OrSsNgXclqpD/SSNOVlc5rCObIyRtn5UmeQlzM0mkKO368Pu8PNgdL4kAYy6LCewk6ajE7Zx973stvl3236badn5r9poWJCAGbDzIKTrVktIGb1RFzNzJf9CVC0aCxPd22ZzAPRItAXatF5/XvU0vYvc3SWzjuGxO4DKSfhroPxax5rtSY93zxr5MpzbfnyDpvJuj9m9RAli3t6mEZccykSD74BRKigb7E0l0BC6nEsCILEXCj2Xtz9+neY7bcqROb+9GfhqBqyZ8qarXxTNOu0NZHxiwU2U55AXCpQcCBJKoN7aun7nOFKIE3j8RDyZFZLpa94Lxz18TMe3aNn1emmd8EUfCue6+7o1c0i0k4RW0iFHku4MKZctYkCri4YcKZVCE2PiS4lYSaaSzcx9RhMarhbxbIhYwoUNg33tdC1bQxyTkOWtn/pnmeU3F8WhJ261rI5f00J5WuF5QMNNHJXrufy8JmwqXHgncOVFlYaV6/R7lHOLSl0/EYta54vryoCEEz/AeL0zMcsbUP/OaAFAfz8uw/fUtEnEsXtxTG+fZKbVcK6G9j+1MBmoFb0nUkNnzKd0I7vuJWNQHqlesWc7qSzm4T5JVtXobyvkzE91LDNRX5XAbVjxSh/ad1S+TilK3U7EF+2Wi/vMNOVT0ushAgKAfJ6q4z0si8UWpJeU2wOyh5iehVvEyWIfy2kRtqc7Pn/N786/XycHr0LCrOAjf6Kl9k9mv1MF/K0n/l4gLeWsID+4yIIFrJ9zLetGAcvdxq9cnasj1DpLPTLKu0IfAGV2TWAgpcn3Ps/PveU8AiFJXWnKato/NdSQRh7+Ptljymz8cmbyk4MJWMtsILiMQeFqiSqQh3HME+VPdkhUMEqOkaNDz18A48I6pBM3wOg/oids8R//eT/uMcL1vhu0xlUj7J9zbnmdMAqaSC3v18zp1/d1pfkdsCWeS9IVElXmKpF1H1CV6a5bisMTt2pBXnUdkr2dPNMnKoT0xW8XTf+unnbblSoTRqRUygva1pUU/8F+FA8Nwmr6+bVtZdPyX18xWKsuqT5WzmQom4Uvpy4JPTtS4FzX4QyaY3CIa7vdkSc+VRIRJMjL6X/8MYI0lfzRXO/EvplQuKunrPT3/LHWXvEpKPePqmyrsMSujO0+p8ZSsy74JG/37CjZsmdXhQ4IhghcN/rPvsAu4xuxGhf/cMdhuiKLIBNRlHAKwPy5Yh1OJCnpLSYSgnT2nKX9iI1N6YhtWSN+TkE+puQ7GeVIHuCvJF1I1+gMGkLfvW5AimBjoqZjUr4Mb1X9PYEvgukE+N+i7En39DQnsEaxDjIlLLtj/PF8Sy/P1ZzTVZ1ZZblgyoEr2JyTk86YJ8JicCqRxJLlNiobPw3T3CRAiC1ofIT9njD8q6XwFc4qkmubt3yUPApFVgFvloUInKViC/mqiPm/2TNd//kzSFTtJltdJBI+LJE2rM/lOlTI4Lw0tzSYCPBCpQgWz7DUF9w6Sfvy2x04CN6NS062ySlJ/uNt8PtzPXDYEqIs2dVc/ljZQYtkngQ1EncP8Z2wJSg+SRr2S4+RPgfZR58JqyGVLbCzrJDN7VamWw9hTm4KhB3ulzFzrjTnlZ2bXz5KEV0ZJJRJE6VMlKTpxWamLru2ZNlBSIeDMGwP6NuH0gYnkS6Df+00iVowpdyqpoayzrGSlatLQmxzzI0nnmQBMLGD7Cgc644hLZkmphT0BmEDDlrQuEwA8TCLbHbPndNXPl0kib0Dp5VySUoZJf07pQNZJft5ECWW7qqG3+RshI7eZAEAsYQlc0Ub3tseydcI9CLWZe/EEIPcaaibf1CcAZ6nicKTax170TPOGO5WgNhhGRtrEPB/GktJWN5s9ORM+CuO0nycc7Ii0V2rc6/lqxoWl77z3X5FE0I2ciycAOddOc9kinX3uWwB4qrAKOT8opfwduykMYqdQ6KNTbpFg44S7sEuBBK6Z2BWu9BCY9SrE/SnV/tiyzgg3RAIT5boa4AlAvUWU+3mKE4CzVpE9+3zr57nFc4psmFMpT084WSL4ERMwl4IJ4NO/bIBq+z3LZFMKAHGhnt2IZnwxQMQbIbfiCUBuNdJNnqlNAHBNTJXtdPYMLvpJ0LPSI5/WW8x9Evb18JpCPJg6n7X7jItP6mxYvNUSfGQqhVzhb0784CzqbJhN4ynAfmYuxROAXGoiJsdUJgC43b17gGfxn5IeO6EtTVoPBpIEKFvU93T9jrGjVDfR2BNV+NkXSBz2cb4B4Vc6taUh4nyn8ped51X/neAiucQU9wSg8Ae9Er/0CcAZJJGVkrwS9Welj8/kvrjZNKr9NC0ITd5nwLMPSrrwaXfzh2wJYAAy1IOE4cyVsyXRTTCifv1ggE6Iju2TGWRf9ASgWzvJ7aySJwAMXn1G86tPIr4o6WK5VV5QHvqsEwfos3g5Ivz5FFwkg8jzPJ2APZ8eoCHUHyiyiV0uTxydpSJeQMq8CnVe85/ZFnjViHEWPAHo3EyyOrHECQDL/bT9vo38eOawXXqxJNzjplQwXvz1wH3+5yXtMiWIpeuChTkzs77d2uYHr9nvNMBLlw5xgfxDbQnAkWXJh48wu/YEYEHFF/hVSRMArPvpr/pcsp71TfwkDDiZAqdWLiHpFwMP/jOu2Bo8eyKxYYpuF7iyfW+kRjBrDPz8qaSLFE1ysfC7Szp6QL7fkHT9xaL08q0nAL1gHfyiJUwA2J7cWxI2MPW+o8/Pn5A0lXTH9UaF99KxA3JcVkf0jTeqC+bPwxDAdYUlrSGWz5ZV/vz3P5SE8eHUClsCBw/8sH1Y0lUGAOkJwACQB7hF7hOAmw+4z0+/xNYaLmwYF06tEJb9yIH7o/m+vv472ysEHiL0sMsABIhYxRt3vRJy+fxtSTsMwGCMW2A5POTbC3X6cUlX6lFZTwB6hDvgpXOdABCILCJbl36NFdEcY26kaA7nlESWwi5c+j4Hl0HSDrv0RIClrJQhHvtqECxj01CnWNALw6W+2C26LjPsd/ZkZ+EJwDRaaWSQpQ2kLoTAps0uas99fcdqKM8mNgZTLGRB/PLATLvUU6mnugAAHltJREFUFQnXdppiBYyl08y17/cFVP6swXxWEkvnUy3MdPGAmOk7xE+Cl/xvYjcmTwCm0UJzmQCwWnVIwnTkTZ8rXHdZbZhqoS+lT23KY+zjcBF/4MQCLY3Sti4pCUOWsSu0y/1JhjPlfSFWZN47Qt0QifHViVYEPAEY5bFOftOxJwAYrn5khGeBt/4XZhZdM3XlYu+F612XPnjscz4n6bKpgazD9XDte4IkUssOUYkzf3RmbinvN/VJAG3x3pUbX0puTa5F50cs84jXgCcA0+hNxpgAsDKJPdIRifuMJm2fY8h1P7VopPOtEXuq1EGSiLb4P5WhZFPWkeNwT3/iBGMwzNdVst9ZRvvagA/VN2tGMyyjpfbPxShnit4B9QrHMpflefbrIw9L13OZaDGYt83Z7QlAvRbL/TzkBGCbKpT1t0Zq67wUMaAgx5TLeSWlZvzn2gvDFQa2KSAhGlEfXZYQwHiF4Ars9XYdCNqcR2N4yoJUtSSVSL3ycNSa5JS+jiQaept6SHnsL6s63X5JG5v/2hOAeSJl/j7EBIAtLwL4/HzE9k2k08uUWUWtpD5fD/0IW4fzAZF4YSAAWeqXvmV9Gi9IGGpi0OhSI0D6y+MGfLBwL7t47f7zH2/XQ2YpDHWmGCxonh3bN4+RdMqA9Tn/wLGV8/wG+2+eAMzXXpm/9zkBINjY23voD+bb7KrfcTHbq8yqaS31RXsIPsYW7+1XSMJY8LEB+yvc2Nk+WvvCTG9I1z48CUgWxP7dRmXPHlYjeENl6WkdCtmzDhvwoVrWgWKIQ57wbRdA9wRgAZQCv0o9AcDwDCvuIbciF7VfVkNfMWG34vmmRl6V1LFGsBW6+/yNlvyOdxOhkxfVRR/f4TJIToi1LEO7kuGXy75Sm4KBW+p9bTJX8VaxLuU2ko4Z8KFa9qD+ofIeuFoNvCcANRgFf0wxAeCl4AbVCwnbg8va0VDfs0q5Li8LND2eyxMSc6fvZiLXpuC5NWSskzYvpW30yPbYoZdbSBhxhwCN/RM3SjoQUkveIiBTaaeShewRPTzgXTtjIjay9/eQQN0y6LjkQSAyAXhU5XGUwySV9ox1/7otD7MFTJ/Y9Xledt6jA82T/vknPci0TNb/m7p9x8zgYqi94VlkrBQBebC6XVZxXb9nX4ql6XUq21VGejm8YXWtt9l5ngDk03IjE4BZfY79k5VBjAynbt0/32ru0ZN9BX12tIxlmD61tM2bErsQIneohwz3kfpSb7Qh3Lcn2ZmkRGapUb3GOh/7AGw/0H+oNpH6Pp4AjNV6trxvyRMA/MQJ5tPUc2VL7cv9hglP6i3W2XO+b0IsjCWpXRJnci76yVg5RDK0hIgWX+osA7v24b6Ha1/KGRR72LytL6qoVN+9ZoE74mKi0/p2F0kf6Jltqjqav44nAPm0xRInAOSUZxK8yhspH8JpJTljZdw4/0yl/B0DyjslFHusFWxWTYssRGjD9S1lpa66FrGiU/vIokPqmADLdMANBevjdSykS/3igG1lWR20+d4TgHxaakkTAAYmBn7CnK9jYUAbatKP7/9NEkO+RJWltE1fETn2x5LIxFpMIWPc0K5992vo2tcG4m6SUocG3qghEJXwQm2EnNixPKyHFzIRwEXs3BPjX6I6bCfx3Gz0bI39d5a68UTC1W1dC1nyMMAdsi7ow3dPDByPEcYc7DaG0uVNJbiDXqqHIA6rAL9LEhG6UhdmeQTfWHXvvv5GpLHUDTY1n76vd72BZ9ld65JOnciHL62WGwmJ7NIvAQaRe0p6naRjR3pG27QX7FzeLYkXinUuV5aER1YbdqmO/XVPKy6MPUOmfT66Jz2StEve/H84UAUTLOK2SaTe8iLE7R/bJQhPCeIkrHshdjbLhX0ZCqXqYGbXQc7vSjq4ekMgLzz7nS7dCBBVEgMsXHHfXMiAP2sLGPeRtZKXonUvd+3JzW/GuslP+vS+crIwFqUOYLRMJ7bVs9wqJvTqMqFTfU8H22csZWI0f30APZrwQFdyI5xh3XsPSSSI4i1qqDwRTeqn6THEGSeGO3VJR0h6UE8KtmzUGO7ylnyvyiqeFLBD2d80rcsmx7HkTF33sTK5JbW8v2GpvE9L/yb1UT+G1bq+vC2INDpULpvn5lbtWPv37d/P6sINe1QcHXLcf/5grjO+Huti2aXJpUDjH3Lvrd6BpPrMwEYGw9dWAYluKokY6Osw2cOaeucq2A0usOxt4mKFVXwqvmNch+VtcmA40cupTy/GfodmWKdfWBIWfFmf0/b7a1WrgH22QV4qGK+yKXRgfSnMUtqTE7v2zYOjU3pvjzpE2bCsvK5Ww/N1xe8E6CDEJ1yibHM6n7bOW8oh1dsEOpLBDHfJLJf9FlWOJMKpXlESLrQPlfS86vli+bL0gX6+vfDSwMoO2xUupxKgryIN+jyrXH5/X4fU4W3qltUsxiye5750JmttNuXBPSlKIpe+rWZZpiKXfV8Vleq6v5OEu5zL6QSouz2qwaXkoEJN28jJ1aTno9We+IuqMLYkuCLb2XWr7RJ8y8l7sSgB0un0mn3iTY6kXVwTQy4MNLkXkxOirb1Y0lskfaLq9PteCWzKqs/jeAP7H0nYeLhsToA+ir6qT/4prv36HjzHNidx6nYf7ukp5J2/Bs98NoXOYF7AyO90dMRpH2JJlLeTiKzz5xLL+0eJrzm7B4Pc07yHvLDdM0BRl2N5b8zqKMefbJnw7zeVgSsGUfyjrfJv9js/j6+OJUlJjrqMKROsHlbYaszCh6WHL7FreXqP0T3pU49K3CYP6oHD/CUZw3hBTu1SjhtiNoVABakeTFLIDpUikT3IVHJzHSxB8UvGHeyIxNeuy4lRWV8Wrdk0qo6CsJ1DMhWMBvtcgqvXhz+nfY5y4snLCLYarK6w4uSyJYEdJX2mx/4Og1D6VPrWnya+D3YbQxTGtJQ2EakDHIUYsNQYTfDyS0l7hqRodzKJeFK6l5HKsr5dceaefUTxbc1qH6gd/kGOxjWVpTK2knIaVCxL3vXBShtthrZTbCjWQZ6wUyPtsbLUV5vGz75u8IYXTcq0wYwB5HoZqjDGMdZFeJE5ETuorAoJLbooRQUQOXCHAbVJHd+fCrn2Avl5YyA3QRcuTc6ZuQrarWwB/LmvdpXEkl/04WtSLz6mvzbfJ9sjJT12zaNxzj02S3+lz6Fv69M1F/uSRdvAV5WEHUaqtoAOQ758YtCLbl3tlnC5z67gX9l27xurYOLtD1kwYoquVtQbHvGmNzLO402iz4RCn7TfceMmRIdyncrKfqjAVfX24s/pOu4ULLFWx3+bNuHSjADbj2xDpuC/6Br0ldiVrSpsO9P3Ljq/y3e45o4xFmFX0kZexti+Yhms4t3obyTjaRKeE1cgDEZYJh+y4JqU0hiDGdxeDRVgkvCHlpXdpmFg/HajhrL4sNMJ4GLHm0zObktt2oGP3bhDpa6pc5aTXdoRYNuR7ce+2hl95EYvVDOJ7xZ4i14kP2PD0CGbGQMZC5u4x2Kke+mZ8rn+ZCn/FUtmZyxZv38k95k+4vsTorRNYQLSZ8hIJiQvGGFi1YZBzscyGXhCFQ2Strqok/B35XHhjRIjtUetafrdFM8c+/C4nfb5XNA30ke2Kfslfk55kWKsGLqwRcnYuIgvKx0vH3ibPKw/Blh3kXRA5S+8r6SLha/a7QKE5Wy7PbFRR39gN1E2RT7b6NrRv/OGQ/hcl+4E8KMnHwOhp49L3MlE69fnbzwJYSWSuqMO6YtcuhO4iiTsI/pud+R76FKemlg23rTH8rJijMTFjxgbjJ2MoW6/XVpFdU4f8f1f2VEewkQumuH18WDx1sPepiOUdaysudNYHXh4lZwopQFSH3W/jtckbgHRPIk8SKhhlzgBXGqJ5Z9yr31V26RvxEarS2F1YtW12/6tz7wBXfTzOR0I9BHfH1/OLlb3GJ99OXEjbdKov1TCvlGHuh3zFCZVdFSE+/xQIZHPmrSVko7Bm+PtklgCvsISa/Ex20jp9yawVl9R7Fa1M5Kxde1faQ+rrt32b33nDSi9jWQtP43oPYkbBNb223TUuq9wyU0aNV4PzOQXudR0VMen1Qjg7olxDnnq2aujE+vT66NJnU/pGN5AmTyz8nZv58Wotbz0H2nLeC2NGdKZvrJLYWL+4cR9PvvyrIS4FESARvy6xA2BDuhsHRlgGJkyeEXXzv0jksio59I/AQJ1sEpAtEn2NpkUlJjetmtb63oe0Ru/JunV1UBE/gFvY/XfXrkD+88fT9xvdmkH5BI4d0eVCdyUeqWVXDGMKS6FECBlbJeGt+yco6uEKF3VJ3HIsmsP/T1Bi3CBcqfatTZj5xE2FVcq7AkIgPVVSdTJ0O1g7Pvh9oSxKpHeaI8Y6zHYd11hi9XKep/NGy7tMSfbFvrMroXJQ2qjxZd0FcbnDUuA2M4pO7efV7nau2qxe8/Rsrrq+k1JV+uqlM9LSoAO+FKSSKuNBTAeJm+oXNewZm/iI9y1HfR1HgZdv6hC6rICQhIrPIGIVcH+cpd93qTQfbFNBOifvpK4z0zRpnBpjvRPF5L0k8R6DZU3wE2zI4G9E1vZY1mMgVHXwrLR/yVuhCkertk1eMhwleq6tdGVi89rR4DBkg6NcNO8KT+ochEiJCjLk1i/Y7DFGzVBWvqYMLAnjI800RNZtWCp+F2SeDPCZYmJCyG2ry5pJ7/Jt6vgEY5miwovoT5D+c76ma4/SQIUWXrHGyRlngImtUxiXTIkMFR8/zaq3yvjwb/+UPKmNmQs7DYMfWw3AiylEzKUf0weeOvmH298LLXzdsVWBP8Ig8t3s3+XrI5lT5jz/bberQ5yPYu+spTYFvShkUI7T7m1MXTegIjua3MuqTpTxvfnDappOMplkIk/kCI3PW92Q+0R80Y3VCrmZdz8vQmYQD8EmAgeMtBLCX1WitVPVrRInhMpqfMGMNZ0jVcQ0cPnLiBweUknJmzULPNEZ52ISUje+lt2l894DuBBQI4Fll27XKPtOTMjwXoKzgXY/ZUJmEAhBHiWcQPuMxdJvZ/5dhXuPdVLEH1ptKTOG3BytZoWlcvnBwiwpJk6vesjAvLMTr1con1Y9lVnBUMxrKWH2rMjLjd+7ZE9uJns/mkCJjAOAZb7fzzQywMvT6S53bqmKn1YfXLQ5TMxNXjRi5bUsVh+WxnvRuXy+R0InEcS6YS7NKhl5xBTOkXB337ZPZp+zxv/osA915RErOqm14keRyRB7uliAiZQDgHsOVIswTftP7ApuMECPPRhX0zQXxGELUXBw6apTk2OGzNvQAoeRV6jj/j+Eb/TOkSstJs0nFXHYJ2PNfWygv74kK+6Rsq/MbPHX/vCywTy9yZgAlkQIIkNnj1DrRTSz9A3nGuF9kxG6NOifRJ9a4rCKkVUlvr5bHlgLOsyAAHyJ5Pas14B0c8Yv6WwdMa1JoV17WsbcryHJHJYR/Vvej57iI+TZPuAhhXkw0xgIAL0PWSPS2nxvlG/gJv03Rvq95oE/dRPJW3b8H6rDqOvZ9KykX5t/n64+8VVyNP8jX3wwxJX3CcS+iwT7KRNo1l0LA8VqWibFkL7fizBfRfJsuw73AbJulbf62sqr48zARNIR4BnkIRIqW2hlj37s+8/2nJFkC3bFMbaT0+EDjfZ1GGPicfBGOXSAwGM0VLMImcNmJ9EwEoVBOcSiWK9P6wjO5bHhs43wGoHiUPc6DtWmk8zgY4E2Fvnmf/RwJN/XlB45rsYB9O31fvfLp9JDEXUzBSFVROCDXWRY9k5b+rIJoU+k75GbvH952GTNWpZo2j6/XeDMfrPV0Vna3q/VMcRrpZOIcU2yjxX/24CJnA6gdnAn9oAuklfQB8XiRNC/0AI8ib3WnUMcqQqzhuQimSP19k/QaOpN6hofP95VYnhXr9+18+LrGjn79Xkd1x/0LGrHF3PYwLDW0mXt4MmevkYE1hnAkRtJKtk1+ez63kE40llgEfUSYyKu8oyO+9WCRsCAZJS2G7NZOMnWUBdEhAgKE+KBjOrHFJN7pJArtkl2EsiPvrs+l1/vm12wUQ/sUolTnxXeSLn4Tp4+yVujInU82VMYC0I8MZ/xwEDgdWfe/pd0qqntnB/a4J+iQytKTNHMiYwNtT1j3yG3b3XooX2qGTq+P4kNEnt045VfKShcC6Wu8xC+yisTgwVCGSeAyk5eQhsLNhHzfqaUybAM3NfSd9P0L/MP5dNfmdb7yY9AWYbIYW3Al4PKcs1JDFGNOHT5BgCGN02pYDrdK3UlUF8/1skBsignaIhPzaxXPOXw22PKIJ/Sdi4mzwAs2PIicD9ozG95/Xy7yYwNQLbSXq4JFzeZs/PkD+Jc0+WQOTos9DnRfUibDleUCnLHpL+mkC2mW7OG9ChdnKN7z+vyjsSNJTUS1nzMtZ/J03rkAGEZg/B7CfxswnCQbASFxMwgdMJYIzGJDnlMvTsuWv6E+M6wqsPUVjhSLG6QR+cuuyVKHDRjLvzBrSooT7i+3d1rVsl9g0TDP40kNSrEqtknv3tlonsFmYNvO1PZu4vlXTpmUD+aQJrSoBEXy9LnM207fOIR0E0+2mX6uOebWVddPyNutx8g3NSG54Tp2GoydUGquX7Z4JFpJgV1hsJsZ9TF/zev5Wg8RLUaKyyVbXUOFSGsHqd1D9/rrIwdiyBsVqC7zs0AQz7sOjnjTulgXP9uWryeZb5M6UxXVuWKQK7fS/oPr1M5hSB3er14LwBy0hLIr791xIMqnXgqeL7z4v9nwnkZJ9p5/kLj/D7jtW2wJgdEXXGDJm9x76MIUdA61uawGYEiNNBWt6fJOg/6v1cl89MPlLvn2+mbMNfyC/CRKSLDvVz6JP7KM4b0AfVuWuyH5Q6nO2hPQWmIUwv0bDqja/L51SZB+dQdv6V5EPEs+6iS8pziPRFnG7ekFxMYAoESIZDgh4MwlI+K12u9QVJ18sMKn1hF13q57DP3odtEas1KWy96rISfZAohC7VIM1gXQcU/Zwyvv98JeEXG5WPN4BcGwD++0cl0DHKiPO/IYm9OAykXEygJAJsZ2J7lCLyXYpniWXy22UKEC+lFK7KxD3po7BFwpiSoh5m12Drw9uekg5ODDZlfP/5xoRrYoql8j3nL5zZ7zTM+0si6c+swY75ExdOHpg7OKZAZi3F4tQJMFAQtIekMLTZMZ+Z2b2JCHq/nlZD67pHP8NtJnPXn/TNqeO8zPQiZwxjS1fZFp1Hbpu1Lgwyi8B0/Q5rVmbefRSWglI0ADJQlVJmKUaHTDm8Ud3jJoXV9NVKgWg5J0+A7TPa5JgufPPPDc8sQcpyXWlc1ChSbAN/tccIpH0YqTM5W8vCjCrlA8NMt0+jlhSTFd4KLltgbbME/8IRAwnNd26z39mqoJO7aIFMLXLZBOhraHu5bJfNngmCffGslrhthkskNkAzXbr+JDFZX4V6T5lnhTGw76BLfbEIXXffBBU9ayBATBnff14xYmEfn0Deg+YvXNjveAy8KJHV7qzuUv1k5k9oUDoRFxPogwBtizZGW0vVblNdB0t6Bn6e0ZLL8xKwpa8+V48QUucNIOTz2pVUEelo+H3t+8wqheW96IOKmxuujlMouDPxoKYIgxzluuh8DJ7w4d19CrCtw6gEaEO0JdrUorY29nc8g6RKxztpCoWVYfrKKNeX9wyDMSeF+yJ6vr5nWbO8/EcTVHIf8f3nYV1R0j8TyLrP/IUn8DvLjM+UhAtO9IHt63ySmrDycu0CDKEm0CSKV4Gc9bQV2gxtp692Gb0uz9zTC13q36iR7J2AO332bhvdKPh3orimMPb8SFCOIk9/X7CS/yXpHj1rTl77/wvKyYNOtDuuNdXCchu+vCniI0Q7xlXnnyjpXZVVNAFIXEwAAuTIwBiL+BO0kVVtaOy/Id+Te0jRm1NLoK/8bIJ64Bp997uMQYxFkXaB18jalecEoZExq+9C5UYqlnOZia7LUjTZ/h4t6bgE3KLcm5xPumL2TYlJXpK1dN/tfurXp66pc+qeNtCkrYx9DLFD/mtC24gbtTHe3lOsvLKa0Hch3kOkfRABde0KPvVdobH01XdhLyqFH/wr+hY0w+sTR+Cukr4YqOOubaPreVhP44ZEmtLrSDpzhlwtUjcC1CV1Shhe6nistNhd2iaR++6ypkFj2Mfvwqx+DvYE9OV9F8ak+n3bfGYsXMvC3kcbUBzbV3z/+QrAsKatbPPH451QojvOPIvI74RBxeDzHwl4zvPt83fkxdqbWOB37jG+RIStz11MAGNbQkmTXpe4GyUN+LRplpSJ1Y8twjqXVN5X9OVDlC55A4gwuLblEpJ+22JgYP8WI52+y6US+aM+sG9BC7o+vvrPz9xgcNWEgihjLBcTveveknZd07ey3Jocq03UBXVC3eCXnyJa56q20NffCN6D8WGf8Uxyq7+N5MGnP8obQz369L4LYxNjVFN5GfvWPkUwez1N4kATMnio2MmvbVGJyyq7z4hUfTfkPq/PctxDM4qRvqz+mnzPm+WXJb1a0oMrd9Rt+4S35teGLe5XsIY5kTlLe7tf1K7IefGQgZaqS2tCRGBNEXeBHC5DFMYoJqKL6rn+HWPeutiGbcj9nJWv7a/nwLEU9hlJN9vwCukO2ErSKXNy1Cuuyec+Y1Kn03T8KxHOl4ldrvEEmtT1/DG02e9Lenu150xyJQKHjJlzffyabicBrC4nCXbs27+tYhq1tp6vqzF//0M1iblqOzRreXSKHCz06fTtQxWMTBm75tssY9yBkhjzXOYI4LLBUs0NJFHpfUZzmrv1ab+yIhHtGNYysMNpBNt/YFWApb4UuRaiddfX+XQEzPoxQsO4ifzlt5S088AdU/va6ecMOmN0hwEsYAIbGM13mn3VyRjX/VKVaGstw78GmhKZ/qL1RUyXoQtjGKtWjGmMbX27JQ6t3+Tud/1gQ2Mf7/yTozKcQkzAGAxySkAU7Xg2Oh+DQ+KL4zVBauyXVCFn71kZs/E2XFIUSSZ05LzYQxI6EDMfndANq3Z0Lc0odKM6XPV34mMQTXSMAWi4J7ffOxF9NNonXK9fEX31KRC4fHAC8IgpQMhAB3KE30nSIRPZ5101QDT9G8uYxFj4lqTDJRFMCw8LBleWFR8piRwbeC1gBT/7x1YL3hj8I549hkf8I248/2a/X7p23FVq53MdUlgTs5x7EPQJi+c3VKlvkYW89/iqR7fPmrLI/ThsE95TcbNLaZoOhZWiSL33mS8mjYa+yugE2H9kf65LQ/vumi7n9l1p7Jfdp3LpShEcpEvd+pxuz8Q6caNtso1BWyUolktaAhjY0cd2aVP06bbDSVsfk70aFqNdGtmNJkskH8XYXiEKZElBhrq0JZ/T7RkcgxvbGkSD89Zf//3EDTv2zXh2uZhAIwL44bbN9MRyqMuwBIgj8ZgqbrhXBsoZMMcYpFPek7ZGnHnCXtMGXYYlQF/bpj7py537Y9g6Kv5u7KM2tUb+uiRb9Y5b5eepgsFgM+B96HYdZJvOdF2PpU2xp0/AIdqay3gE6GuJndCkLTJZw5bIxQRaE7i1pOM3aGjvLsxCuzWEAk/A6OpWkl6VKLd4k47GxzTrkEviRC4QQo/jqmhDvrw6Arxi6HtXtacTJNGHu5hAZwIYoJEg5ogq3S2rAsdUFtB2K+mMdbAT8bsl2MoBkj5pj4KVHeaqznQd/oblPrHZcVvEC8I+24M9pp1vhNs2njD0yfTNuFzSVxNAysF2OmP1iSYwTQK4F84yw5Eohjjh6zC4Wcct65nlYcLMko4VV0fahosJmIAJmMCaECDj2B2q4EPfKziRjAf4LQf4eSaE6KaOCcpDnVP3LiZgAiZgAiawiQBR7GYrBKRkZR9xfiDx72Uwwff7c9Ub/m0k7eA2bgImYAImYAJtCBApj5C2RL9jybipd4gnCsNOFNgHZj+YOBFEPSSTnIsJmIAJmIAJJCOwdZXhbzYpwJaA3N4e8IdhcHI1EZsN9qzY2A03WfP2hUzABEzABNoSIIAUbkd4HLxD0rcl/dkTg84TI9jBkNTKWObDFsYuJmACJmACJlAEAYzNWJImuBTuScQnYNXgl54c6MTqbf6d1V49aaGxyGfbxUv4RTRvC2kCJmAC/7+9OzZhGIihAPrXyDbZIGOkygYp3GeizJCJ0oUHOkjtzvgXxxljn6TPgSTzfb8I7EEAMc0/50hq9yTbFAiU/j5JHEZzxGOO+cx3MYhF0SM2CV6sCqKS8vbsmL5TBIpAESgCp0FAJ3wZPXliKLchJT6SPJO8JsHqot8jlISsSDYYMW4N3fYa37+vD67XffN63mwNaxFfsjYbkjmbbPMBF4JP1/GRr+3eT7M9G+hREfgB/lqWU3mVRQcAAAAASUVORK5CYII=;" vertex="1" parent="1">
          <mxGeometry x="590" y="500" width="70" height="70" as="geometry" />
        </mxCell>
        <mxCell id="gtQoloSdJLPToObRkVTG-58" value="Оповещение" style="ellipse;whiteSpace=wrap;html=1;" vertex="1" parent="1">
          <mxGeometry x="350" y="590" width="90" height="50" as="geometry" />
        </mxCell>
        <mxCell id="gtQoloSdJLPToObRkVTG-59" value="" style="endArrow=classic;html=1;rounded=0;entryX=0.944;entryY=0.83;entryDx=0;entryDy=0;entryPerimeter=0;" edge="1" parent="1" source="gtQoloSdJLPToObRkVTG-58" target="gtQoloSdJLPToObRkVTG-21">
          <mxGeometry width="50" height="50" relative="1" as="geometry">
            <mxPoint x="293" y="390" as="sourcePoint" />
            <mxPoint x="287" y="470" as="targetPoint" />
          </mxGeometry>
        </mxCell>
        <mxCell id="gtQoloSdJLPToObRkVTG-60" value="" style="endArrow=classic;html=1;rounded=0;entryX=0.733;entryY=0.93;entryDx=0;entryDy=0;entryPerimeter=0;exitX=0.278;exitY=0.11;exitDx=0;exitDy=0;exitPerimeter=0;" edge="1" parent="1" source="gtQoloSdJLPToObRkVTG-58" target="gtQoloSdJLPToObRkVTG-20">
          <mxGeometry width="50" height="50" relative="1" as="geometry">
            <mxPoint x="303" y="400" as="sourcePoint" />
            <mxPoint x="297" y="480" as="targetPoint" />
          </mxGeometry>
        </mxCell>
        <mxCell id="gtQoloSdJLPToObRkVTG-61" value="" style="endArrow=classic;html=1;rounded=0;entryX=0.256;entryY=0.93;entryDx=0;entryDy=0;entryPerimeter=0;" edge="1" parent="1" source="gtQoloSdJLPToObRkVTG-58" target="gtQoloSdJLPToObRkVTG-19">
          <mxGeometry width="50" height="50" relative="1" as="geometry">
            <mxPoint x="313" y="410" as="sourcePoint" />
            <mxPoint x="307" y="490" as="targetPoint" />
          </mxGeometry>
        </mxCell>
        <mxCell id="gtQoloSdJLPToObRkVTG-65" value="" style="endArrow=classic;html=1;rounded=0;" edge="1" parent="1" source="gtQoloSdJLPToObRkVTG-57" target="gtQoloSdJLPToObRkVTG-5">
          <mxGeometry width="50" height="50" relative="1" as="geometry">
            <mxPoint x="600" y="557" as="sourcePoint" />
            <mxPoint x="446" y="611" as="targetPoint" />
          </mxGeometry>
        </mxCell>
      </root>
    </mxGraphModel>
  </diagram>
</mxfile>
